<?xml version="1.0" encoding="UTF-8" standalone="no"?>
<svg
   viewBox="0 0 750 500"
   style="enable-background:new 0 0 750 500"
   xml:space="preserve"
   version="1.1"
   id="svg43"
   sodipodi:docname="groovy.svg"
   inkscape:version="1.4 (e7c3feb100, 2024-10-09)"
   xmlns:inkscape="http://www.inkscape.org/namespaces/inkscape"
   xmlns:sodipodi="http://sodipodi.sourceforge.net/DTD/sodipodi-0.dtd"
   xmlns:xlink="http://www.w3.org/1999/xlink"
   xmlns="http://www.w3.org/2000/svg"
   xmlns:svg="http://www.w3.org/2000/svg"><sodipodi:namedview
     id="namedview43"
     pagecolor="#ffffff"
     bordercolor="#999999"
     borderopacity="1"
     inkscape:showpageshadow="2"
     inkscape:pageopacity="0"
     inkscape:pagecheckerboard="0"
     inkscape:deskcolor="#d1d1d1"
     inkscape:zoom="1.1506667"
     inkscape:cx="355.88065"
     inkscape:cy="275.927"
     inkscape:window-width="1920"
     inkscape:window-height="1014"
     inkscape:window-x="0"
     inkscape:window-y="0"
     inkscape:window-maximized="1"
     inkscape:current-layer="svg43" /><defs
     id="defs1"><path
       id="a"
       d="M0 0h750v500H0z" /><clipPath
       clipPathUnits="userSpaceOnUse"
       id="clipPath1672"><use
         xlink:href="#a"
         style="overflow:visible"
         id="use1672" /></clipPath><clipPath
       clipPathUnits="userSpaceOnUse"
       id="clipPath1673"><use
         xlink:href="#a"
         style="overflow:visible"
         id="use1673" /></clipPath><clipPath
       clipPathUnits="userSpaceOnUse"
       id="clipPath1674"><use
         xlink:href="#a"
         style="overflow:visible"
         id="use1674" /></clipPath><clipPath
       clipPathUnits="userSpaceOnUse"
       id="clipPath1675"><use
         xlink:href="#a"
         style="overflow:visible"
         id="use1675" /></clipPath><clipPath
       clipPathUnits="userSpaceOnUse"
       id="clipPath1676"><use
         xlink:href="#a"
         style="overflow:visible"
         id="use1676" /></clipPath><clipPath
       clipPathUnits="userSpaceOnUse"
       id="clipPath1677"><use
         xlink:href="#a"
         style="overflow:visible"
         id="use1677" /></clipPath><clipPath
       clipPathUnits="userSpaceOnUse"
       id="clipPath1678"><use
         xlink:href="#a"
         style="overflow:visible"
         id="use1678" /></clipPath><clipPath
       clipPathUnits="userSpaceOnUse"
       id="clipPath1679"><use
         xlink:href="#a"
         style="overflow:visible"
         id="use1679" /></clipPath><clipPath
       clipPathUnits="userSpaceOnUse"
       id="clipPath1680"><use
         xlink:href="#a"
         style="overflow:visible"
         id="use1680" /></clipPath><clipPath
       clipPathUnits="userSpaceOnUse"
       id="clipPath1681"><use
         xlink:href="#a"
         style="overflow:visible"
         id="use1681" /></clipPath><clipPath
       clipPathUnits="userSpaceOnUse"
       id="clipPath1682"><use
         xlink:href="#a"
         style="overflow:visible"
         id="use1682" /></clipPath><clipPath
       clipPathUnits="userSpaceOnUse"
       id="clipPath1683"><use
         xlink:href="#a"
         style="overflow:visible"
         id="use1683" /></clipPath><clipPath
       clipPathUnits="userSpaceOnUse"
       id="clipPath1684"><use
         xlink:href="#a"
         style="overflow:visible"
         id="use1684" /></clipPath><clipPath
       clipPathUnits="userSpaceOnUse"
       id="clipPath1685"><use
         xlink:href="#a"
         style="overflow:visible"
         id="use1685" /></clipPath><clipPath
       clipPathUnits="userSpaceOnUse"
       id="clipPath1686"><use
         xlink:href="#a"
         style="overflow:visible"
         id="use1686" /></clipPath><clipPath
       clipPathUnits="userSpaceOnUse"
       id="clipPath1687"><use
         xlink:href="#a"
         style="overflow:visible"
         id="use1687" /></clipPath><clipPath
       clipPathUnits="userSpaceOnUse"
       id="clipPath1688"><use
         xlink:href="#a"
         style="overflow:visible"
         id="use1688" /></clipPath><clipPath
       clipPathUnits="userSpaceOnUse"
       id="clipPath1689"><use
         xlink:href="#a"
         style="overflow:visible"
         id="use1689" /></clipPath><clipPath
       clipPathUnits="userSpaceOnUse"
       id="clipPath1690"><use
         xlink:href="#a"
         style="overflow:visible"
         id="use1690" /></clipPath><clipPath
       clipPathUnits="userSpaceOnUse"
       id="clipPath1691"><use
         xlink:href="#a"
         style="overflow:visible"
         id="use1691" /></clipPath><clipPath
       clipPathUnits="userSpaceOnUse"
       id="clipPath1692"><use
         xlink:href="#a"
         style="overflow:visible"
         id="use1692" /></clipPath><clipPath
       clipPathUnits="userSpaceOnUse"
       id="clipPath1693"><use
         xlink:href="#a"
         style="overflow:visible"
         id="use1693" /></clipPath><clipPath
       clipPathUnits="userSpaceOnUse"
       id="clipPath1694"><use
         xlink:href="#a"
         style="overflow:visible"
         id="use1694" /></clipPath><clipPath
       clipPathUnits="userSpaceOnUse"
       id="clipPath1695"><use
         xlink:href="#a"
         style="overflow:visible"
         id="use1695" /></clipPath><clipPath
       clipPathUnits="userSpaceOnUse"
       id="clipPath1696"><use
         xlink:href="#a"
         style="overflow:visible"
         id="use1696" /></clipPath><clipPath
       clipPathUnits="userSpaceOnUse"
       id="clipPath1697"><use
         xlink:href="#a"
         style="overflow:visible"
         id="use1697" /></clipPath><clipPath
       clipPathUnits="userSpaceOnUse"
       id="clipPath1698"><use
         xlink:href="#a"
         style="overflow:visible"
         id="use1698" /></clipPath><clipPath
       clipPathUnits="userSpaceOnUse"
       id="clipPath1699"><use
         xlink:href="#a"
         style="overflow:visible"
         id="use1699" /></clipPath><clipPath
       clipPathUnits="userSpaceOnUse"
       id="clipPath1700"><use
         xlink:href="#a"
         style="overflow:visible"
         id="use1700" /></clipPath><clipPath
       clipPathUnits="userSpaceOnUse"
       id="clipPath1701"><use
         xlink:href="#a"
         style="overflow:visible"
         id="use1701" /></clipPath><clipPath
       clipPathUnits="userSpaceOnUse"
       id="clipPath1702"><use
         xlink:href="#a"
         style="overflow:visible"
         id="use1702" /></clipPath><clipPath
       clipPathUnits="userSpaceOnUse"
       id="clipPath1703"><use
         xlink:href="#a"
         style="overflow:visible"
         id="use1703" /></clipPath><clipPath
       clipPathUnits="userSpaceOnUse"
       id="clipPath1704"><use
         xlink:href="#a"
         style="overflow:visible"
         id="use1704" /></clipPath><clipPath
       clipPathUnits="userSpaceOnUse"
       id="clipPath1705"><use
         xlink:href="#a"
         style="overflow:visible"
         id="use1705" /></clipPath><clipPath
       clipPathUnits="userSpaceOnUse"
       id="clipPath1706"><use
         xlink:href="#a"
         style="overflow:visible"
         id="use1706" /></clipPath><clipPath
       clipPathUnits="userSpaceOnUse"
       id="clipPath1707"><use
         xlink:href="#a"
         style="overflow:visible"
         id="use1707" /></clipPath><clipPath
       clipPathUnits="userSpaceOnUse"
       id="clipPath1708"><use
         xlink:href="#a"
         style="overflow:visible"
         id="use1708" /></clipPath><clipPath
       clipPathUnits="userSpaceOnUse"
       id="clipPath1709"><use
         xlink:href="#a"
         style="overflow:visible"
         id="use1709" /></clipPath><clipPath
       clipPathUnits="userSpaceOnUse"
       id="clipPath1710"><use
         xlink:href="#a"
         style="overflow:visible"
         id="use1710" /></clipPath><clipPath
       clipPathUnits="userSpaceOnUse"
       id="clipPath1711"><use
         xlink:href="#a"
         style="overflow:visible"
         id="use1711" /></clipPath><clipPath
       clipPathUnits="userSpaceOnUse"
       id="clipPath1712"><use
         xlink:href="#a"
         style="overflow:visible"
         id="use1712" /></clipPath><clipPath
       clipPathUnits="userSpaceOnUse"
       id="clipPath1713"><use
         xlink:href="#a"
         style="overflow:visible"
         id="use1713" /></clipPath><clipPath
       clipPathUnits="userSpaceOnUse"
       id="clipPath1714"><use
         xlink:href="#a"
         style="overflow:visible"
         id="use1714" /></clipPath></defs><path
     style="fill:none;stroke:#595959;stroke-width:3.5;stroke-miterlimit:10;stroke-dasharray:none;stroke-opacity:1"
     d="m 356.827,-9.97 c -11.146,-3.703 -19.616,4.668 -28.438,9.638 -8.281,4.665 -16.958,6.582 -20.665,16.68 -1.507,4.105 -1.856,8.665 -4.092,12.423 -1.65,2.773 -4.197,4.878 -6.693,6.924 l -18.411,15.094 c -3.993,3.274 -8.081,6.659 -10.585,11.175 -2.504,4.516 -3.087,10.488 -0.056,14.669 5.285,7.29 16.629,4.784 25.131,7.749 11.087,3.867 16.523,16.923 27.112,21.998 -0.718,5.663 -0.738,12.775 4.305,15.451 4.475,2.374 9.765,-0.486 14.443,-2.431 5.429,-2.257 11.698,-3.257 17.166,-1.096 5.468,2.161 9.642,8.16 8.31,13.887 -1.066,4.581 -5.297,8.874 -3.617,13.267 0.736,1.925 2.478,3.267 3.597,5 6.621,10.262 -9.001,25.185 6.073,30.684 11.289,4.118 24.98,0.401 34.318,10.562 9.077,9.877 4.587,26.948 -3.094,36.338 -7.777,9.508 -22.017,3.98 -29.002,15.055 -1.207,1.914 -1.949,4.091 -3.155,6.005 -4.23,6.718 -13.024,8.809 -18.944,14.097 -8.297,7.41 -9.834,19.916 -16.788,28.598 -4.498,5.616 -10.943,9.246 -16.643,13.635 -5.7,4.388 -11.044,10.25 -11.637,17.419 -0.484,5.849 2.499,11.303 2.311,17.063 -0.213,6.518 -2.531,11.362 -1.635,18.27 0.279,2.152 0.736,4.407 2.177,6.03 1.844,2.077 4.812,2.621 7.335,3.784 10.511,4.847 12.951,20.233 23.621,24.718 5.725,2.406 13.079,1.251 17.497,5.614 3.705,3.66 3.559,9.953 1.03,14.505 -2.53,4.552 -6.903,7.74 -11.213,10.665 -24.29648,16.47948 -50.85548,29.34651 -78.847,38.199 -1.814,0.573 -3.8,1.126 -5.575,0.442 -3.227,-1.243 -3.725,-5.486 -5.373,-8.527 -2.803,-5.175 -9.456,-7.009 -15.329,-6.637 -5.873,0.372 -11.546,2.405 -17.419,2.779 -20.349,1.293 -35.959,-16.478 -51.811,-29.303 -13.17819,-10.64796 -28.35075,-18.55603 -44.627,-23.26 -3.342,-0.964 -6.99,-1.962 -9.068,-4.752 -2.882,-3.867 -1.5,-9.269 -1.802,-14.082 -0.506,-8.051 -6.692,-15.419 -14.533,-17.311 -4.064,-0.98 -8.314,-0.6 -12.489,-0.813 -17.782,-0.909 -37.05,-12.221 -51.994,-2.54 -3.827,2.479 -7.092,6.267 -11.593,6.993 -3.418,0.551 -6.822,-0.811 -10.016,-2.146 l -43.544,-18.197 m 794.507,-62.514 c -10.079,0.69 -18.887,-6.197 -28.341,-9.761 -11.281,-4.254 -23.695,-3.762 -35.7,-4.87 -29.783,-2.747 -58.354,-15.601 -88.258,-15.01 -23.799,0.47 -46.682,9.501 -67.469,21.1 -10.126,5.65 -20.083,12.099 -27.362,21.126 -11.168,13.849 -14.864,33.385 -9.526,50.356 5.338,16.972 19.551,30.874 36.636,35.837 17.077,4.96 35.331,1.299 53.098,2.039 17.767,0.74 37.883,8.43 42.909,25.487 0.935,3.172 1.301,6.558 2.877,9.465 2.545,4.694 7.707,7.244 12.593,9.398 9.718,4.284 20.275,8.233 30.724,6.333 9.788,-1.78 17.899,-8.406 26.982,-12.465 17.708,-7.914 39.685,-5.253 54.992,6.66 M 600.301,-12.255 c -8.84,9.376 -18.243,18.485 -24.549,29.722 -6.307,11.237 -9.144,25.268 -3.977,37.073 5.166,11.802 17.952,21.615 15.732,34.305 -0.716,4.096 -3.015,7.794 -3.659,11.901 -1.131,7.213 3.172,14.421 9.039,18.768 5.867,4.346 13.086,6.378 20.151,8.22 11.038,2.877 22.562,5.513 33.756,3.318 11.193,-2.195 21.981,-10.534 23.389,-21.853 0.658,-5.293 -0.745,-10.634 -0.558,-15.964 0.187,-5.33 2.74,-11.304 7.903,-12.64 4.282,-1.108 9.162,1.309 13.098,-0.709 5.74,-2.943 4.03,-11.606 6.776,-17.443 3.56,-7.565 14.186,-8.806 22.031,-5.915 7.845,2.891 14.367,8.633 22.149,11.689 9.78,3.841 21.279,3.012 30.406,-2.193"
     id="path1"
     sodipodi:nodetypes="ccscccscccccsccccscccccccccsccccccccscccccccccccccccccccsccccccccccsccccssscscc"
     clip-path="url(#clipPath1714)" /><path
     style="fill:none;stroke:#595959;stroke-width:2;stroke-miterlimit:10;stroke-dasharray:none;stroke-opacity:1"
     d="m 759.602,297.567 c -17.06,-7.499 -35.85,-9.899 -54.34,-12.218 l -42.806,-5.37 c -17.124,-2.148 -34.422,-4.299 -51.594,-2.573 a 115.568,115.568 0 0 0 -49.18,16.727 c -8.961,5.562 -17.371,12.632 -22.157,22.031 -4.786,9.398 -5.318,21.469 0.739,30.103 3.59,5.118 9.098,8.603 14.853,11.045 14.332,6.083 30.338,6.336 45.777,8.341 15.44,2.006 31.726,6.504 41.691,18.467 5.607,6.731 8.785,15.373 15.144,21.398 13.521,12.812 35.301,9.138 52.998,3.326 17.697,-5.813 37.499,-12.845 54.155,-4.505"
     id="path2"
     clip-path="url(#clipPath1713)" /><path
     style="fill:none;stroke:#595959;stroke-width:2;stroke-miterlimit:10;stroke-dasharray:none;stroke-opacity:1"
     d="m 684.713,325.944 c -4.187,0.154 -8.526,0.818 -11.983,3.186 -3.457,2.367 -5.768,6.817 -4.551,10.827 1.24,4.089 5.59,6.446 9.78,7.286 4.189,0.84 8.56,0.609 12.692,1.698 7.862,2.073 14.403,8.785 22.534,8.772 14.169,-0.022 17.341,-17.69 6.859,-25.332 -7.886,-5.749 -26.255,-6.77 -35.331,-6.437 z"
     id="path3"
     clip-path="url(#clipPath1712)" /><path
     style="fill:none;stroke:#595959;stroke-width:2;stroke-miterlimit:10;stroke-dasharray:none;stroke-opacity:1"
     d="m 704.948,310.667 c -14.518,-4.306 -27.865,-5.394 -42.718,-2.079 -14.882,3.322 -29.895,18.436 -20.8,34.265 6.35,11.052 18.993,13.996 30.133,17.951 8.855,3.144 15.182,9.14 23.437,13.055 12.095,5.736 27.016,3.791 38.553,-2.384 9.553,-5.113 21.574,-17.9 18.055,-29.776 -3.269,-11.034 -17.135,-19.082 -26.785,-23.663 -6.392,-3.034 -13.1,-5.36 -19.875,-7.369 z"
     id="path4"
     clip-path="url(#clipPath1711)" /><path
     style="fill:none;stroke:#595959;stroke-width:2;stroke-miterlimit:10;stroke-dasharray:none;stroke-opacity:1"
     d="m 762.44,320.138 c -21.815,-9.958 -44.036,-19.387 -67.392,-24.823 -23.356,-5.436 -48.062,-6.743 -71.209,-0.475 -8.962,2.427 -17.841,6.108 -24.555,12.522 -6.714,6.414 -10.947,15.96 -9.186,25.077 1.751,9.066 9.001,16.212 17.101,20.645 8.1,4.433 17.173,6.696 25.853,9.847 8.68,3.151 17.352,7.481 22.928,14.842 2.065,2.726 3.655,5.807 5.913,8.375 6.032,6.857 15.996,9.014 25.09,8.169 9.094,-0.844 17.724,-4.226 26.495,-6.772 a 147.635,147.635 0 0 1 54.029,-5.26 M 606.772,-6.116 c -8.858,6.03 -16.609,14.118 -20.608,24.06 -4,9.941 -3.825,21.864 1.972,30.876 3.331,5.179 8.308,9.21 11.214,14.639 3.692,6.896 3.592,15.144 3.005,22.944 -0.342,4.541 -0.766,9.361 1.307,13.415 1.992,3.895 5.945,6.366 9.882,8.271 5.655,2.736 11.903,4.738 18.148,4.062 7.38,-0.799 14.209,-5.572 17.496,-12.227 2.48,-5.022 2.968,-10.755 4.345,-16.185 1.376,-5.429 4.074,-11.051 9.145,-13.429 3.073,-1.441 6.649,-1.502 9.732,-2.92 10.117,-4.651 9.564,-20.222 18.294,-27.134 5.888,-4.662 14.457,-4.029 21.487,-1.388 7.03,2.641 13.344,6.996 20.472,9.358 11.665,3.865 25.12,1.841 35.131,-5.286"
     id="path5"
     clip-path="url(#clipPath1710)" /><path
     style="fill:none;stroke:#595959;stroke-width:2;stroke-miterlimit:10;stroke-dasharray:none;stroke-opacity:1"
     d="M 630.272,-6.095 A 65.477,65.477 0 0 0 614.78,5.162 c -6.691,6.559 -12.194,15.907 -9.732,24.947 1.963,7.206 8.536,12.429 10.627,19.599 1.117,3.829 0.861,7.918 1.547,11.847 0.685,3.929 2.725,8.069 6.5,9.355 1.52,0.518 3.19,0.512 4.753,0.144 7.641,-1.8 10.796,-10.785 16.552,-16.123 4.876,-4.523 11.646,-6.356 17.127,-10.124 8.211,-5.644 12.969,-15.402 14.226,-25.286 1.256,-9.884 -0.652,-19.925 -3.598,-29.443 m 17.46,3.447 c -0.046,14.531 9.063,28.694 22.303,34.681 7.634,3.452 16.162,4.279 24.521,4.845 9.046,0.613 18.684,0.842 26.522,-3.716 M 711.66,-7.878 c -0.331,5.847 4.003,10.996 8.901,14.206 6.796,4.454 15.013,6.426 23.137,6.6 8.124,0.174 16.197,-1.368 24.042,-3.488"
     id="path6"
     clip-path="url(#clipPath1709)" /><path
     style="fill:none;stroke:#595959;stroke-width:2;stroke-miterlimit:10;stroke-dasharray:none;stroke-opacity:1"
     d="m 644.435,-5.8 c 0.075,5.314 -4.479,9.365 -7.046,14.018 -1.678,3.041 -2.531,6.464 -3.161,9.88 -0.866,4.694 -0.951,10.422 2.91,13.228 2.601,1.89 6.303,1.704 9.153,0.215 2.849,-1.489 4.971,-4.073 6.697,-6.785 6.799,-10.682 8.413,-24.505 4.258,-36.466 M -13.617,107.091 c 3.765,5.515 9.174,9.685 14.724,13.397 18.264,12.216 39.406,20.566 61.329,22.045 21.923,1.479 44.606,-4.243 62.048,-17.607 8.22,-6.298 15.24,-14.195 24.135,-19.497 14.12,-8.416 31.252,-9.383 47.413,-12.387 16.162,-3.004 33.45,-9.491 41.074,-24.054 3.354,-6.405 4.561,-13.95 9.004,-19.653 6.309,-8.097 17.575,-10.58 25.021,-17.646 6.962,-6.606 9.785,-16.388 15.161,-24.339 6.277,-9.284 16.249,-15.994 27.214,-18.31"
     id="path7"
     clip-path="url(#clipPath1708)" /><path
     style="fill:none;stroke:#595959;stroke-width:2;stroke-miterlimit:10;stroke-dasharray:none;stroke-opacity:1"
     d="m -13.712,94.724 c 3.299,4.779 7.981,8.425 12.792,11.679 15.828,10.705 34.166,18.059 53.203,19.531 19.037,1.472 38.668,-3.331 54.089,-14.441 a 99.418,99.418 0 0 0 7.299,-5.803 c 4.665,-4.075 8.959,-8.437 13.979,-11.83 a 47.656,47.656 0 0 1 6.251,-3.546 c 9.103,-4.322 19.652,-5.899 29.981,-7.572 a 345.45,345.45 0 0 0 5.642,-0.952 c 8.291,-1.488 16.897,-3.846 24.121,-7.997 5.433,-3.126 10.068,-7.274 13.178,-12.728 3.191,-5.587 4.551,-12.192 8.548,-17.311 5.676,-7.267 15.364,-9.951 21.7,-16.49 2.538,-2.618 4.417,-5.727 6.071,-8.995 2.206,-4.353 4.024,-8.999 6.542,-13.143 5.141,-8.491 13.386,-14.828 22.929,-17.372"
     id="path8"
     clip-path="url(#clipPath1707)" /><path
     style="fill:none;stroke:#595959;stroke-width:2;stroke-miterlimit:10;stroke-dasharray:none;stroke-opacity:1"
     d="m -13.806,82.356 c 2.834,4.043 6.789,7.166 10.859,9.96 13.392,9.194 28.926,15.551 45.077,17.016 16.15,1.465 32.752,-2.403 46.129,-11.276 2.263,-1.501 4.498,-3.078 6.606,-4.88 4.176,-3.568 7.675,-7.635 11.814,-10.891 a 39.171,39.171 0 0 1 5.178,-3.447 c 7.635,-4.288 17,-5.99 26.153,-7.48 1.674,-0.272 3.344,-0.542 5.004,-0.826 7.366,-1.262 14.996,-3.134 21.497,-6.607 4.875,-2.612 9.085,-6.14 12.027,-10.789 3.028,-4.768 4.54,-10.434 8.092,-14.968 5.043,-6.437 13.153,-9.323 18.379,-15.333 2.093,-2.404 3.627,-5.208 4.945,-8.142 1.758,-3.901 3.155,-8.05 5.119,-11.796 4.006,-7.698 10.524,-13.663 18.644,-16.433"
     id="path9"
     clip-path="url(#clipPath1706)" /><path
     style="fill:none;stroke:#595959;stroke-width:2;stroke-miterlimit:10;stroke-dasharray:none;stroke-opacity:1"
     d="m -13.901,69.989 c 2.369,3.307 5.597,5.907 8.926,8.241 10.956,7.683 23.686,13.043 36.951,14.502 13.264,1.459 26.868,-1.447 38.169,-8.11 2.02,-1.191 4.055,-2.412 5.913,-3.956 3.686,-3.061 6.395,-6.826 9.65,-9.952 a 32.168,32.168 0 0 1 4.104,-3.349 c 6.18,-4.236 14.349,-6.082 22.325,-7.388 1.459,-0.239 2.916,-0.466 4.366,-0.7 6.442,-1.036 13.095,-2.422 18.873,-5.217 4.318,-2.098 8.101,-5.007 10.876,-8.851 2.865,-3.949 4.53,-8.676 7.636,-12.625 4.41,-5.606 10.941,-8.694 15.058,-14.177 1.648,-2.191 2.837,-4.691 3.82,-7.289 1.311,-3.449 2.294,-7.098 3.696,-10.448 2.886,-6.899 7.661,-12.498 14.359,-15.494"
     id="path10"
     clip-path="url(#clipPath1705)" /><path
     style="fill:none;stroke:#595959;stroke-width:2;stroke-miterlimit:10;stroke-dasharray:none;stroke-opacity:1"
     d="m -13.996,57.621 c 1.904,2.57 4.405,4.647 6.994,6.523 8.52,6.172 18.446,10.535 28.825,11.988 10.378,1.452 21.031,-0.443 30.21,-4.945 1.785,-0.875 3.611,-1.746 5.22,-3.032 3.197,-2.554 5.116,-6.013 7.486,-9.013 a 25.542,25.542 0 0 1 3.03,-3.25 c 4.715,-4.203 11.697,-6.173 18.497,-7.296 1.243,-0.205 2.488,-0.391 3.728,-0.574 5.517,-0.811 11.195,-1.711 16.248,-3.826 3.76,-1.584 7.117,-3.873 9.725,-6.913 2.702,-3.131 4.52,-6.918 7.18,-10.282 3.777,-4.776 8.73,-8.065 11.737,-13.021 1.203,-1.978 2.047,-4.172 2.694,-6.436 0.863,-2.997 1.427,-6.15 2.273,-9.1 1.752,-6.108 4.799,-11.332 10.074,-14.555"
     id="path11"
     clip-path="url(#clipPath1704)" /><path
     style="fill:none;stroke:#595959;stroke-width:2;stroke-miterlimit:10;stroke-dasharray:none;stroke-opacity:1"
     d="m -14.091,45.254 c 1.439,1.834 3.212,3.387 5.061,4.804 6.083,4.662 13.206,8.027 20.698,9.473 7.491,1.446 15.252,0.657 22.25,-1.779 1.56,-0.543 3.168,-1.08 4.527,-2.108 2.708,-2.047 3.842,-5.197 5.322,-8.073 0.575,-1.117 1.203,-2.182 1.956,-3.151 3.245,-4.175 9.046,-6.264 14.67,-7.204 a 81.265,81.265 0 0 1 3.091,-0.448 c 4.593,-0.586 9.294,-0.999 13.624,-2.436 3.203,-1.07 6.133,-2.74 8.574,-4.974 2.538,-2.312 4.509,-5.16 6.724,-7.939 3.144,-3.946 6.519,-7.436 8.416,-11.864 0.758,-1.765 1.257,-3.654 1.568,-5.584 0.416,-2.545 0.556,-5.203 0.85,-7.752 0.613,-5.318 1.937,-10.167 5.789,-13.616"
     id="path12"
     clip-path="url(#clipPath1703)" /><path
     style="fill:none;stroke:#595959;stroke-width:2;stroke-miterlimit:10;stroke-dasharray:none;stroke-opacity:1"
     d="m -14.186,32.887 c 7.38,8.322 18.945,12.73 29.992,11.431 1.342,-0.158 2.724,-0.414 3.834,-1.184 3.069,-2.13 2.579,-6.749 4.04,-10.187 1.764,-4.152 6.394,-6.356 10.842,-7.112 4.447,-0.756 9.039,-0.438 13.453,-1.367 10.892,-2.292 19.4,-12.942 19.229,-24.071 -0.099,-6.499 -2.653,-13.66 0.931,-19.082 M -32.036,306.914 c 9.601,12.251 20.844,25.466 36.301,27.296 12.65,1.498 24.918,-5.177 37.654,-5.444 12.236,-0.256 23.794,5.384 35.906,7.138 16.909,2.447 34.35,-2.936 48.523,-12.476 24.316,-16.367 39.622,-45.334 39.443,-74.645 -0.064,-10.432 -1.945,-20.977 0.033,-31.219 1.483,-7.678 5.063,-14.767 7.537,-22.185 4.631,-13.884 5.32,-29.059 1.967,-43.305 -0.933,-3.965 -2.251,-7.999 -5.016,-10.99 -5.061,-5.475 -13.765,-6.01 -20.832,-3.632 -7.067,2.378 -13.05,7.101 -19.346,11.094 -25.375,16.094 -56.584,20.545 -86.615,19.508 -9.323,-0.322 -18.743,-1.157 -27.56,-4.202 -11.883,-4.105 -22.027,-11.981 -31.931,-19.724 -4.272,-3.34 -9.594,-4.588 -14.921,-3.572 -5.327,1.016 -10.039,4.093 -14.196,7.576 -16.183,13.562 -25.866,34.559 -25.675,55.672 0.078,8.669 1.725,17.249 3.757,25.677 6.491,26.932 17.883,55.628 34.971,77.433 z"
     id="path13"
     clip-path="url(#clipPath1702)" /><path
     style="fill:none;stroke:#595959;stroke-width:2;stroke-miterlimit:10;stroke-dasharray:none;stroke-opacity:1"
     d="m 25.389,179.848 c -9.576,-2.89 -18.076,-8.48 -26.365,-14.129 -3.552,-2.421 -7.88,-3.298 -12.219,-2.461 -4.349,0.84 -8.236,3.23 -11.698,5.936 -13.605,10.569 -22.186,26.908 -22.663,43.974 -0.174,6.965 0.926,13.953 2.443,20.941 5.464,21.096 14.272,43.714 27.758,60.91 7.631,9.729 16.657,20.042 28.904,21.637 10.024,1.305 19.8,-3.639 29.913,-3.92 9.994,-0.311 19.376,3.541 29.142,4.389 13.604,1.203 27.549,-3.628 39.163,-11.313 19.263,-12.828 31.947,-34.845 32.629,-57.66 0.238,-8.115 -0.951,-16.31 0.697,-24.27 1.265,-6.017 4.053,-11.585 5.968,-17.391 3.605,-10.953 4.038,-22.831 1.286,-33.952 -0.766,-3.094 -1.831,-6.235 -3.993,-8.589 -3.95,-4.301 -10.664,-4.881 -16.175,-3.258 -5.5,1.631 -10.209,5.037 -15.17,7.913 -19.93,11.622 -44.463,14.764 -68.013,14.141 -7.318,-0.193 -14.677,-0.807 -21.607,-2.898 z"
     id="path14"
     clip-path="url(#clipPath1701)" /><path
     style="fill:none;stroke:#595959;stroke-width:2;stroke-miterlimit:10;stroke-dasharray:none;stroke-opacity:1"
     d="M 34.818,195.845 C 27.53,194.18 20.703,190.864 14.02,187.31 c -2.828,-1.504 -6.166,-2.008 -9.517,-1.349 -3.372,0.664 -6.427,2.377 -9.201,4.296 -11.002,7.613 -18.55,19.254 -19.651,32.276 -0.445,5.259 0.127,10.657 1.13,16.206 4.435,15.259 10.66,31.8 20.544,44.387 5.661,7.207 12.47,14.619 21.507,15.978 7.397,1.113 14.684,-2.073 22.172,-2.397 7.754,-0.336 14.958,1.698 22.377,1.641 10.3,-0.04 20.769,-4.289 29.804,-10.151 14.243,-9.241 24.272,-24.356 25.816,-40.676 0.54,-5.799 0.021,-11.649 1.361,-17.32 1.03,-4.36 3.044,-8.403 4.4,-12.598 a 43.55,43.55 0 0 0 0.604,-24.597 c -0.598,-2.223 -1.412,-4.472 -2.97,-6.189 -2.839,-3.126 -7.565,-3.762 -11.518,-2.885 -3.935,0.873 -7.374,2.96 -10.993,4.731 -14.508,7.101 -32.342,8.984 -49.412,8.773 -5.313,-0.063 -10.624,-0.442 -15.655,-1.591 z"
     id="path15"
     clip-path="url(#clipPath1700)" /><path
     style="fill:none;stroke:#595959;stroke-width:2;stroke-miterlimit:10;stroke-dasharray:none;stroke-opacity:1"
     d="m 44.248,211.842 c -5.038,-0.403 -10.134,-1.497 -15.231,-2.94 a 14.527,14.527 0 0 0 -6.816,-0.238 c -2.394,0.488 -4.624,1.515 -6.703,2.656 -8.427,4.626 -14.873,11.598 -16.639,20.578 -0.699,3.552 -0.671,7.36 -0.183,11.47 3.407,9.423 7.048,19.887 13.33,27.863 3.692,4.685 8.283,9.195 14.11,10.319 4.77,0.921 9.567,-0.534 14.43,-0.874 5.513,-0.386 10.538,-0.16 15.613,-1.108 6.992,-1.305 13.972,-4.975 20.445,-8.988 9.191,-5.698 16.597,-13.867 19.002,-23.691 0.843,-3.483 1.011,-6.985 2.025,-10.371 0.809,-2.701 2.034,-5.221 2.831,-7.804 a 25.519,25.519 0 0 0 -0.077,-15.244 c -0.43,-1.353 -0.992,-2.708 -1.946,-3.788 -1.728,-1.952 -4.462,-2.636 -6.861,-2.511 -2.367,0.123 -4.533,0.891 -6.816,1.55 -9.058,2.612 -20.222,3.204 -30.811,3.405 a 97.947,97.947 0 0 1 -9.703,-0.284 z"
     id="path16"
     clip-path="url(#clipPath1699)" /><path
     style="fill:none;stroke:#595959;stroke-width:2;stroke-miterlimit:10;stroke-dasharray:none;stroke-opacity:1"
     d="m 20.572,247.998 c 2.379,3.587 3.436,7.973 6.116,11.34 3.132,3.936 8.425,6.032 13.403,5.309 7.694,-1.118 13.089,-7.994 19.934,-11.682 4.106,-2.212 8.922,-3.378 12.188,-6.707 12.87,-13.119 -6.859,-23.255 -18.535,-18.42 -11.408,4.725 -32.938,2.911 -33.106,20.16 z M 293.326,113.355 c 5.213,6.055 8.252,13.678 13.013,20.094 4.761,6.416 12.385,11.847 20.225,10.308 2.177,-0.427 4.322,-1.381 6.524,-1.108 3.78,0.468 6.181,4.306 7.306,7.945 2.785,9.008 1.165,18.714 1.734,28.125 0.569,9.411 4.536,19.935 13.459,22.981 3.897,1.331 8.462,1.117 11.679,3.688 5.891,4.709 2.625,14.451 -2.64,19.851 -7.483,7.674 -17.691,12.073 -25.888,18.98 -11.511,9.701 -18.429,23.773 -28.899,34.59 -11.934,12.329 -28.507,20.057 -45.623,21.273 -17.116,1.216 -34.615,-4.092 -48.171,-14.611 -8.665,-6.723 -15.632,-15.364 -22.146,-24.187 -2.324,-3.148 -4.664,-6.473 -5.35,-10.325 -0.605,-3.399 0.141,-6.881 0.964,-10.234 a 214.609,214.609 0 0 1 9.656,-29.759 c 2.234,-5.485 4.725,-10.987 5.339,-16.878 0.64,-6.137 -0.799,-12.273 -2.014,-18.322 -3.33,-16.582 -4.687,-35.057 4.568,-49.213 15.95,-24.395 65.118,-37.76 86.264,-13.198 z"
     id="path17"
     clip-path="url(#clipPath1698)" /><path
     style="fill:none;stroke:#595959;stroke-width:2;stroke-miterlimit:10;stroke-dasharray:none;stroke-opacity:1"
     d="m 225.928,148.462 c 10.639,-18.758 45.736,-28.799 62.189,-12.323 4.032,4.038 6.594,9.199 10.286,13.595 3.725,4.403 9.325,8.194 15.006,7.413 1.587,-0.218 3.152,-0.801 4.739,-0.515 2.94,0.53 4.893,3.466 5.945,6.273 2.143,5.715 2.052,11.945 2.083,18.155 0.008,1.362 0.026,2.7 0.069,4.014 0.253,7.785 1.941,15.363 6.872,18.055 2.181,1.19 4.655,1.469 6.542,3.457 3.443,3.628 1.349,10.095 -2.316,13.958 -5.211,5.493 -12.184,8.839 -17.787,13.869 -3.711,3.33 -6.729,7.312 -9.631,11.406 -3.253,4.591 -6.366,9.331 -10.152,13.46 -8.167,8.905 -19.497,14.608 -31.349,16.075 -12.092,1.497 -24.946,-1.466 -34.891,-8.989 -6.489,-4.883 -11.458,-11.515 -15.831,-18.213 -1.56,-2.376 -3.103,-4.868 -3.53,-7.711 -0.377,-2.509 0.157,-5.072 0.742,-7.549 a 192.118,192.118 0 0 1 2.349,-8.94 206.687,206.687 0 0 1 4.236,-13.101 c 1.47,-4.073 3.089,-8.156 3.442,-12.498 0.368,-4.523 -0.664,-9.046 -1.551,-13.511 -2.433,-12.243 -3.515,-25.709 2.538,-36.38 z"
     id="path18"
     clip-path="url(#clipPath1697)" /><path
     style="fill:none;stroke:#595959;stroke-width:2;stroke-miterlimit:10;stroke-dasharray:none;stroke-opacity:1"
     d="m 244.794,170.372 c 5.292,-13.174 26.322,-19.834 38.114,-11.449 2.844,2.022 4.924,4.733 7.559,7.095 2.679,2.403 6.269,4.546 9.787,4.517 0.998,-0.008 1.982,-0.205 2.953,0.078 2.104,0.612 3.605,2.627 4.584,4.6 1.996,4.02 2.502,8.599 2.565,13.218 0.015,1.04 0.017,2.038 0.005,2.997 -0.08,6.161 -0.731,10.726 0.285,13.128 0.433,1.024 1.162,1.545 1.405,3.225 1.526,2.004 0.073,5.74 -1.992,8.065 -2.939,3.311 -6.676,5.605 -9.686,8.757 -1.993,2.084 -3.622,4.502 -5.186,6.97 -1.756,2.774 -3.44,5.629 -5.48,8.171 -4.399,5.48 -10.504,9.199 -17.076,10.878 -7.091,1.811 -15.264,1.14 -21.612,-3.368 -4.303,-3.056 -7.269,-7.673 -9.516,-12.24 -0.79,-1.606 -1.541,-3.263 -1.71,-5.097 -0.149,-1.618 0.172,-3.262 0.521,-4.865 0.421,-1.94 0.884,-3.871 1.352,-5.791 a 433.384,433.384 0 0 1 2.161,-8.532 c 0.707,-2.66 1.452,-5.325 1.545,-8.119 0.097,-2.91 -0.529,-5.82 -1.089,-8.701 -1.533,-7.895 -2.364,-16.382 0.511,-23.537 z"
     id="path19"
     clip-path="url(#clipPath1696)" /><path
     style="fill:none;stroke:#595959;stroke-width:2;stroke-miterlimit:10;stroke-dasharray:none;stroke-opacity:1"
     d="m 263.659,192.281 c 0.324,7.487 3.136,14.835 2.409,22.293 -0.238,2.44 -0.854,4.856 -0.764,7.306 0.09,2.45 1.064,5.064 3.201,6.266 2.723,1.532 6.332,0.145 8.332,-2.254 2,-2.4 2.798,-5.547 3.611,-8.563 0.813,-3.016 1.778,-6.151 3.995,-8.351 4.912,-4.874 10.352,-4.971 10.094,-13.174 -0.142,-4.512 -2.526,-8.802 -6.271,-11.207 -7.812,-5.017 -25.119,-4.155 -24.607,7.684 z m -97.59,127.307 a 191.51,191.51 0 0 0 -16.013,26.88 c -1.8,3.674 -3.515,7.549 -3.543,11.64 -0.066,9.592 8.707,16.581 16.617,22.007 l 40.162,27.552 c 7.063,4.845 14.507,9.838 23.02,10.791 8.784,0.983 18.213,-2.405 26.243,1.288 3.4,1.564 6.151,4.26 9.419,6.085 11.294,6.306 25.471,0.913 36.444,-5.935 4.539,-2.832 9.394,-6.732 9.494,-12.081 0.108,-5.789 -5.481,-10.044 -10.908,-12.062 -5.427,-2.018 -11.503,-2.983 -15.832,-6.828 -8.194,-7.277 -6.008,-20.252 -7.657,-31.086 -2.128,-13.978 -11.704,-25.941 -23.248,-34.105 -11.973,-8.468 -29.012,-18.329 -42.912,-23.293 -16.87,-6.023 -32.037,6.167 -41.286,19.147 z"
     id="path20"
     clip-path="url(#clipPath1695)" /><path
     style="fill:none;stroke:#595959;stroke-width:2;stroke-miterlimit:10;stroke-dasharray:none;stroke-opacity:1"
     d="m 182.373,338.438 c -2.847,4.997 -5.651,10.013 -7.681,15.253 -0.796,2.053 -1.583,4.197 -1.374,6.419 0.526,5.61 6.196,9.322 11.183,12.313 a 620.002,620.002 0 0 1 24.92,15.815 c 4.329,2.894 8.805,5.965 13.792,6.977 4.966,1.007 10.255,-0.223 14.946,1.946 1.997,0.923 3.685,2.371 5.638,3.345 6.75,3.364 15.034,0.418 21.48,-3.609 2.974,-1.86 5.915,-4.347 6.348,-7.617 0.476,-3.598 -2.078,-6.52 -4.753,-8.338 -2.663,-1.81 -5.819,-3.109 -8.236,-5.833 -4.525,-5.1 -4.275,-12.987 -6.179,-19.493 -1.303,-4.451 -3.77,-8.451 -6.865,-11.806 -2.789,-3.024 -6.251,-5.702 -10.026,-7.877 -8.176,-4.725 -19.272,-9.802 -28.326,-11.817 -10.76,-2.397 -19.707,5.264 -24.867,14.322 z"
     id="path21"
     clip-path="url(#clipPath1694)" /><path
     style="fill:none;stroke:#595959;stroke-width:2;stroke-miterlimit:10;stroke-dasharray:none;stroke-opacity:1"
     d="m 198.676,357.288 c -0.086,1.72 0.298,3.54 1.446,4.824 1.425,1.595 3.684,2.063 5.75,2.618 a 38.852,38.852 0 0 1 14.244,7.241 c 1.167,0.94 2.297,1.959 3.65,2.603 2.638,1.256 5.899,0.877 8.372,-0.678 9.597,-6.037 2.558,-20.634 -5.787,-24.076 -8.489,-3.503 -27.02,-5.557 -27.675,7.468 z m -210.829,14.789 c 10.492,13.245 30.531,12.734 47.161,9.742 16.63,-2.993 35.277,-6.861 49.241,2.653 10.757,7.329 15.653,20.82 25.476,29.361 10.327,8.978 24.74,11.412 36.568,18.293 19.141,11.136 32.939,34.34 55.076,34.896 6.313,0.159 12.584,-1.684 18.88,-1.191 10.034,0.786 18.574,7.284 27.928,10.998 20.861,8.284 44.782,2.258 64.886,-7.726 20.104,-9.984 38.263,-23.786 59.056,-32.242 20.793,-8.456 46.065,-10.742 64.565,1.97 29.964,20.591 27,67.125 50.542,94.829"
     id="path22"
     clip-path="url(#clipPath1693)" /><path
     style="fill:none;stroke:#595959;stroke-width:2;stroke-miterlimit:10;stroke-dasharray:none;stroke-opacity:1"
     d="m 276.37,509.761 a 766.425,766.425 0 0 1 66.296,-40.264 c 13.155,-7.104 26.798,-13.917 41.566,-16.251 14.768,-2.334 31.03,0.42 42.057,10.517 8.639,7.91 13.127,19.252 17.34,30.181 l 6.49,16.835"
     id="path23"
     clip-path="url(#clipPath1692)" /><path
     style="fill:none;stroke:#595959;stroke-width:2;stroke-miterlimit:10;stroke-dasharray:none;stroke-opacity:1"
     d="m 317.79,510.832 27.964,-20.275 c 7.147,-5.182 14.387,-10.416 22.581,-13.702 8.194,-3.286 17.573,-4.473 25.846,-1.392 13.571,5.054 20.628,19.655 26.365,32.951 M -14.867,400.744 c 13.109,5.932 28.307,2.783 42.425,0.008 14.119,-2.776 29.812,-4.805 41.998,2.845 4.247,2.665 7.743,6.34 11.379,9.792 7.511,7.13 15.765,13.425 24.001,19.704 5.16,3.934 10.377,7.902 16.291,10.572 3.63,1.639 7.477,2.766 11.084,4.454 15.246,7.134 24.829,23.525 40.454,29.786 15.04,6.027 33.389,1.665 47.126,10.256 9.56,5.979 14.7,17.033 17.653,27.915"
     id="path24"
     clip-path="url(#clipPath1691)" /><path
     style="fill:none;stroke:#595959;stroke-width:2;stroke-miterlimit:10;stroke-dasharray:none;stroke-opacity:1"
     d="m -16.358,415.677 c 11.447,4.861 24.64,2.229 36.934,-0.056 7.512,-1.396 15.513,-2.546 23.037,-1.764 4.79,0.498 9.389,1.782 13.545,4.294 3.721,2.248 6.816,5.342 10.027,8.255 6.636,6.019 13.884,11.366 21.096,16.737 4.524,3.367 9.087,6.779 14.218,9.128 3.15,1.442 6.475,2.464 9.594,3.962 4.652,2.233 8.704,5.445 12.58,8.927 7.103,6.38 13.602,13.649 22.219,17.378 4.245,1.837 8.794,2.723 13.418,3.358 9.342,1.281 18.99,1.536 26.957,6.575 8.288,5.243 12.933,14.666 15.78,23.883"
     id="path25"
     clip-path="url(#clipPath1690)" /><path
     style="fill:none;stroke:#595959;stroke-width:2;stroke-miterlimit:10;stroke-dasharray:none;stroke-opacity:1"
     d="m -17.848,430.609 c 9.784,3.791 20.974,1.676 31.444,-0.12 6.401,-1.097 13.193,-1.981 19.601,-1.313 4.073,0.424 7.996,1.482 11.566,3.527 3.194,1.831 5.889,4.343 8.674,6.718 5.761,4.907 12.004,9.306 18.191,13.769 3.889,2.801 7.798,5.656 12.145,7.683 2.669,1.244 5.472,2.162 8.104,3.469 3.924,1.949 7.352,4.701 10.62,7.694 5.984,5.478 11.4,11.724 18.525,15.129 3.509,1.678 7.266,2.594 11.097,3.299 7.738,1.422 15.783,1.98 22.527,6.311 7.016,4.507 11.166,12.299 13.908,19.851"
     id="path26"
     clip-path="url(#clipPath1689)" /><path
     style="fill:none;stroke:#595959;stroke-width:2;stroke-miterlimit:10;stroke-dasharray:none;stroke-opacity:1"
     d="m -19.338,445.541 c 8.121,2.721 17.307,1.122 25.953,-0.184 5.29,-0.797 10.873,-1.415 16.165,-0.862 3.356,0.351 6.603,1.181 9.586,2.761 2.668,1.414 4.962,3.345 7.322,5.181 4.885,3.796 10.123,7.247 15.286,10.801 3.253,2.235 6.508,4.533 10.072,6.238 2.188,1.047 4.47,1.86 6.615,2.977 3.196,1.664 6,3.957 8.66,6.461 4.865,4.575 9.199,9.798 14.83,12.88 2.774,1.52 5.738,2.465 8.776,3.24 6.135,1.561 12.576,2.424 18.096,6.048 5.745,3.771 9.4,9.931 12.035,15.819"
     id="path27"
     clip-path="url(#clipPath1688)" /><path
     style="fill:none;stroke:#595959;stroke-width:2;stroke-miterlimit:10;stroke-dasharray:none;stroke-opacity:1"
     d="m -20.828,460.473 c 6.459,1.651 13.641,0.568 20.462,-0.249 4.179,-0.498 8.553,-0.849 12.729,-0.411 2.639,0.277 5.211,0.881 7.606,1.994 2.142,0.997 4.036,2.346 5.969,3.644 4.01,2.684 8.242,5.187 12.38,7.834 2.618,1.668 5.219,3.409 7.999,4.793 1.708,0.85 3.468,1.558 5.125,2.485 2.468,1.38 4.648,3.214 6.7,5.228 3.745,3.673 6.997,7.872 11.135,10.631 2.039,1.361 4.21,2.336 6.454,3.181 4.531,1.702 9.368,2.868 13.666,5.784 4.473,3.035 7.633,7.564 10.162,11.787 M -22.319,475.405 c 4.796,0.581 9.975,0.014 14.971,-0.313 3.068,-0.199 6.232,-0.284 9.293,0.04 1.922,0.203 3.818,0.58 5.627,1.228 1.616,0.579 3.109,1.348 4.617,2.107 3.135,1.573 6.361,3.128 9.475,4.866 1.982,1.102 3.929,2.286 5.926,3.348 1.227,0.653 2.466,1.256 3.635,1.992 1.74,1.095 3.296,2.47 4.74,3.995 2.626,2.771 4.795,5.947 7.44,8.383 1.304,1.202 2.681,2.207 4.133,3.122 2.928,1.842 6.161,3.312 9.236,5.52 3.201,2.299 5.866,5.197 8.289,7.755 m -88.872,-27.111 c 5.066,-0.791 10.239,-0.435 15.337,0.115 8.187,0.883 17.09,2.685 22.258,9.095 2.251,2.792 3.565,6.215 5.558,9.197 a 23.975,23.975 0 0 0 11.222,8.98 M 331.72,18.789 c -3.824,5.507 -5.249,12.482 -9.496,17.669 -5.294,6.465 -13.98,9.021 -20.402,14.367 -1.267,1.055 -2.474,2.26 -3.118,3.777 -1.584,3.729 0.74,8.069 3.871,10.64 7.525,6.18 19.319,6.08 25.529,13.58 2.682,3.238 3.889,7.46 6.336,10.879 8.332,11.637 26.232,9.487 38.888,16.17 6.766,3.573 12.019,9.91 14.277,17.221 3.594,11.638 0.569,26.523 9.96,34.279 2.614,2.159 5.877,3.38 9.157,4.238 10.715,2.804 22.334,2.03 32.583,-2.17 6.53,-2.676 12.429,-6.655 18.334,-10.52 11.452,-7.496 23.541,-14.824 37.076,-16.866 18.044,-2.722 37.572,4.117 54.191,-3.423 15.426,-6.998 23.612,-26.803 17.63,-42.65 -4.076,-10.798 -13.515,-19.127 -16.55,-30.263 -2.974,-10.91 0.77,-22.554 6.038,-32.559 5.268,-10.006 12.109,-19.242 16.036,-29.846 0.678,-1.831 1.261,-3.893 0.5,-5.692 -0.458,-1.083 -1.348,-1.917 -2.226,-2.7 -20.366,-18.183 -47.467,-27.953 -74.711,-29.723 -27.244,-1.771 -54.625,4.101 -79.957,14.282 -9.098,3.656 -17.673,7.997 -24.14,15.519 -5.228,6.08 -10.114,10.589 -17.691,13.773 -13.94,5.857 -32.744,6.523 -42.115,20.018 z"
     id="path28"
     clip-path="url(#clipPath1687)" /><path
     style="fill:none;stroke:#595959;stroke-width:2;stroke-miterlimit:10;stroke-dasharray:none;stroke-opacity:1"
     d="m 424.238,-16.574 c -7.138,2.869 -13.912,6.238 -19.121,11.988 -4.183,4.64 -8.118,8.099 -14.073,10.567 -11.017,4.557 -25.694,5.23 -33.256,15.569 -3.102,4.225 -4.397,9.561 -7.797,13.567 -4.25,5 -11.025,7.087 -16.073,11.294 -0.996,0.83 -1.95,1.772 -2.472,2.953 -1.258,2.848 0.44,6.169 2.736,8.161 5.518,4.79 14.26,4.891 18.847,10.702 1.98,2.509 2.861,5.757 4.679,8.403 6.188,9.008 19.63,7.685 29.247,12.958 5.447,3.021 9.901,7.834 12.111,13.255 1.104,2.717 1.716,5.646 2.266,8.562 1.182,6.351 2.173,12.664 7.517,16.651 2.181,1.62 4.844,2.569 7.513,3.296 8.481,2.28 17.497,2.055 25.451,-0.692 5.062,-1.76 9.637,-4.48 14.228,-7.125 5.863,-3.374 11.953,-6.712 18.496,-8.984 3.399,-1.179 6.919,-2.079 10.576,-2.544 14.264,-1.813 29.768,3.06 42.741,-3.154 11.888,-5.693 18.195,-21.035 13.898,-33.419 -2.927,-8.44 -9.992,-14.986 -11.893,-23.64 -1.906,-8.675 1.599,-17.748 5.965,-25.596 4.421,-7.892 9.756,-15.273 12.523,-24.023 0.466,-1.473 0.879,-3.115 0.264,-4.569 -0.368,-0.87 -1.062,-1.554 -1.749,-2.202 -15.483,-14.52 -36.276,-22.647 -57.555,-24.083 -0.514,-0.035 -1.029,-0.067 -1.544,-0.095 -21.655,-1.167 -43.405,4.111 -63.525,12.2 z"
     id="path29"
     clip-path="url(#clipPath1686)" /><path
     style="fill:none;stroke:#595959;stroke-width:2;stroke-miterlimit:10;stroke-dasharray:none;stroke-opacity:1"
     d="m 432.811,-2.629 c -5.178,2.082 -10.164,4.467 -14.101,8.457 -3.148,3.19 -6.122,5.61 -10.455,7.361 -8.097,3.258 -18.63,3.95 -24.399,11.121 -2.373,2.95 -3.545,6.64 -6.098,9.465 -3.207,3.535 -8.071,5.154 -11.744,8.222 -0.725,0.605 -1.426,1.284 -1.826,2.129 -0.931,1.967 0.14,4.268 1.601,5.682 3.511,3.4 9.202,3.702 12.165,7.823 1.279,1.779 1.834,4.054 3.022,5.928 4.044,6.38 13.028,5.883 19.606,9.747 4.128,2.469 7.783,5.757 9.945,9.288 1.077,1.77 1.832,3.64 2.511,5.491 1.478,4.027 2.835,8.007 7.094,10.655 1.744,1.085 3.809,1.766 5.869,2.354 6.24,1.781 12.663,2.097 18.319,0.786 3.596,-0.833 6.844,-2.304 10.123,-3.73 4.189,-1.814 8.555,-3.63 13.322,-4.845 2.477,-0.63 5.06,-1.113 7.746,-1.345 10.484,-0.903 21.963,2.009 31.292,-2.885 8.35,-4.381 12.777,-15.267 10.166,-24.187 -1.778,-6.083 -6.449,-10.869 -7.237,-17.018 -0.829,-6.47 2.409,-12.955 5.893,-18.632 3.553,-5.791 7.415,-11.288 9.011,-18.201 0.256,-1.111 0.498,-2.336 0.028,-3.447 -0.277,-0.656 -0.773,-1.193 -1.271,-1.704 -11.041,-11.331 -26.369,-17.81 -42.34,-18.582 a 73.163,73.163 0 0 0 -1.146,-0.049 c -16.068,-0.565 -32.188,4.12 -47.096,10.116 z"
     id="path30"
     clip-path="url(#clipPath1685)" /><path
     style="fill:none;stroke:#595959;stroke-width:2;stroke-miterlimit:10;stroke-dasharray:none;stroke-opacity:1"
     d="m 441.385,11.317 c -3.218,1.296 -6.405,2.703 -9.082,4.926 -2.104,1.747 -4.126,3.12 -6.837,4.155 -5.176,1.959 -11.58,2.663 -15.542,6.673 -1.651,1.67 -2.693,3.719 -4.399,5.363 -2.164,2.069 -5.117,3.221 -7.415,5.149 -0.453,0.38 -0.9,0.795 -1.179,1.304 -0.598,1.088 -0.16,2.368 0.466,3.203 1.504,2.01 4.143,2.513 5.483,4.944 0.578,1.05 0.806,2.35 1.364,3.452 1.9,3.751 6.426,4.081 9.966,6.535 2.809,1.917 5.67,3.675 7.779,5.322 a 34.415,34.415 0 0 1 2.757,2.42 c 1.76,1.7 3.505,3.341 6.671,4.659 1.311,0.546 2.775,0.956 4.225,1.412 4.004,1.259 7.821,2.128 11.187,2.264 2.124,0.086 4.052,-0.129 6.017,-0.335 2.515,-0.255 5.158,-0.548 8.147,-0.706 1.556,-0.08 3.2,-0.147 4.916,-0.146 6.703,0.006 14.162,0.979 19.843,-2.616 4.817,-3.048 7.36,-9.499 6.435,-14.955 -0.628,-3.725 -2.826,-6.804 -2.58,-10.395 0.297,-4.33 3.237,-8.152 5.82,-11.669 2.704,-3.681 5.116,-7.273 5.498,-12.379 0.056,-0.745 0.116,-1.558 -0.208,-2.325 -0.187,-0.443 -0.486,-0.83 -0.794,-1.206 C 493.29,8.265 483.461,3.419 472.797,3.285 A 46.503,46.503 0 0 0 472.05,3.281 c -10.48,0.041 -20.97,4.132 -30.665,8.036 z"
     id="path31"
     clip-path="url(#clipPath1684)" /><path
     style="fill:none;stroke:#595959;stroke-width:2;stroke-miterlimit:10;stroke-dasharray:none;stroke-opacity:1"
     d="m 429.672,33.648 c -1.893,1.798 -2.968,4.736 -1.837,7.089 2.226,2.039 5.722,1.566 8.615,0.703 2.893,-0.863 6.025,-1.986 8.829,-0.866 4.268,1.706 5.247,7.498 8.94,10.235 3.12,2.312 8.016,1.707 10.479,-1.295 2.261,-2.755 2.421,-6.824 4.78,-9.496 4.298,-4.868 10.768,-5.151 6.972,-13.173 -2.285,-4.829 -6.555,-8.136 -11.912,-7.58 -5.007,0.52 -9.991,4.142 -14.58,5.997 -6.233,2.52 -15.282,3.634 -20.286,8.386 z m 327.241,55.599 a 250.84,250.84 0 0 0 -32.12,-11.999 c -5.802,-1.726 -13.954,-2.147 -15.988,3.554 -0.745,2.088 -0.316,4.415 -0.776,6.583 -1.207,5.684 -7.804,8.321 -13.57,9.036 -1.39,0.173 -2.85,0.311 -4.02,1.082 -2.039,1.344 -2.511,4.087 -2.733,6.519 -0.82,8.98 -0.898,18.514 -5.659,26.172 -7.199,11.579 -22.495,14.878 -36.124,15.22 a 148.997,148.997 0 0 1 -43.576,-5.389 c -10.14,-2.82 -20.645,-6.755 -30.896,-4.368 -5.476,1.275 -10.386,4.278 -15.721,6.053 -8.422,2.802 -17.509,2.439 -26.367,2.985 -26.645,1.642 -52.68,12.027 -73.139,29.176 -6.822,5.718 -13.181,12.382 -16.534,20.628 -3.98,9.788 -3.324,20.97 -0.282,31.089 3.043,10.118 8.319,19.396 13.553,28.575 3.697,6.484 8.833,13.832 16.295,13.659 2.941,-0.068 5.934,-1.368 8.738,-0.481 4.21,1.333 5.483,6.562 8.311,9.952 4.583,5.493 13.279,5.649 19.771,2.645 6.492,-3.004 11.482,-8.416 16.876,-13.115 28.701,-25.004 69.443,-30.156 107.506,-30.468 9.523,-0.078 19.212,0.102 28.288,2.987 5.547,1.763 10.751,4.505 16.331,6.16 9.614,2.851 19.845,2.351 29.864,2.777 a 159.103,159.103 0 0 1 63.873,16.45"
     id="path32"
     clip-path="url(#clipPath1683)" /><path
     style="fill:none;stroke:#595959;stroke-width:2;stroke-miterlimit:10;stroke-dasharray:none;stroke-opacity:1"
     d="m 753.68,103.877 c -4.794,-4.135 -9.811,-8.392 -15.926,-10.033 -6.115,-1.641 -13.653,0.175 -16.598,5.779 -0.6,1.142 -1.023,2.437 -1.995,3.285 -1.457,1.271 -3.612,1.128 -5.542,1.249 -6.616,0.414 -12.752,5.159 -14.819,11.457 -2.597,7.914 0.788,17.361 -3.555,24.468 -2.68,4.385 -7.681,6.722 -12.5,8.509 a 123.595,123.595 0 0 1 -53.733,7.195 c -17.208,-1.534 -34.499,-6.679 -51.478,-3.491 -6.216,1.167 -12.175,3.428 -18.343,4.825 -7.679,1.74 -15.593,2.125 -23.39,3.223 a 128.858,128.858 0 0 0 -41.62,13.368 c -11.785,6.16 -22.936,14.534 -29.285,26.218 -6.349,11.684 -6.936,27.153 1.173,37.692 1.312,1.706 2.922,3.319 4.985,3.929 2.782,0.822 5.802,-0.333 8.658,0.177 6.808,1.215 9.518,10.88 16.329,12.077 3.118,0.548 6.206,-0.895 9.028,-2.329 20.591,-10.464 40.75,-22.744 63.362,-27.451 10.955,-2.281 22.199,-2.711 33.38,-3.135 19.6,-0.742 39.543,-1.448 58.5,3.584 6.403,1.7 12.636,4.042 19.117,5.414 13.656,2.89 27.84,1.365 41.734,2.704 a 101.708,101.708 0 0 1 36.878,10.877"
     id="path33"
     clip-path="url(#clipPath1682)" /><path
     style="fill:none;stroke:#595959;stroke-width:2;stroke-miterlimit:10;stroke-dasharray:none;stroke-opacity:1"
     d="m 505.965,191.034 c -3.978,2.159 -8.017,4.596 -10.508,8.375 -2.491,3.779 -2.959,9.264 0.096,12.603 1.638,1.789 4.127,2.852 5.165,5.044 0.824,1.741 0.532,3.822 1.191,5.632 1.047,2.878 4.338,4.436 7.4,4.409 3.062,-0.027 5.959,-1.304 8.742,-2.581 16.82,-7.714 33.615,-16.372 51.931,-19.002 15.81,-2.27 32.04,0.081 47.802,-2.498 5.777,-0.945 12.405,-3.486 13.726,-9.188 3.585,-15.472 -20.055,-26.775 -32.384,-26.056 -19.741,1.151 -39.661,3.237 -58.659,8.933 a 182.028,182.028 0 0 0 -34.502,14.329 z m 252.449,-70.538 c -4.431,0.633 -8.586,-1.962 -12.56,-4.022 -3.974,-2.06 -9.006,-3.608 -12.725,-1.116 -2.404,1.611 -3.613,4.547 -5.895,6.328 -1.842,1.438 -4.28,2.039 -5.927,3.696 -2.204,2.218 -2.407,5.651 -2.943,8.731 -1.29,7.412 -5.331,14.312 -11.163,19.064 -6.228,5.074 -14.098,7.571 -21.72,10.109 -7.622,2.539 -15.441,5.374 -21.255,10.917 -5.814,5.543 -9.103,14.538 -5.733,21.83 3.332,7.21 11.743,10.467 19.539,11.986 13.627,2.656 27.672,2.111 41.447,3.841 13.775,1.73 28.014,6.22 37.149,16.675"
     id="path34"
     clip-path="url(#clipPath1681)" /><path
     style="fill:none;stroke:#595959;stroke-width:2;stroke-miterlimit:10;stroke-dasharray:none;stroke-opacity:1"
     d="m 756.56,146.261 c -1.719,-2.86 -5.362,-4.309 -8.648,-3.724 -3.286,0.585 -6.101,3.02 -7.473,6.062 -0.832,1.844 -1.175,3.874 -1.971,5.734 -2.894,6.764 -10.716,9.603 -17.513,12.419 a 114.264,114.264 0 0 0 -16.133,8.24 c -4.036,2.483 -8.336,5.958 -8.389,10.696 -0.038,3.4 2.294,6.496 5.236,8.202 2.942,1.706 6.411,2.239 9.802,2.478 8.249,0.582 16.615,-0.38 24.757,1.062 a 42.714,42.714 0 0 1 21.672,10.875"
     id="path35"
     clip-path="url(#clipPath1680)" /><path
     style="fill:none;stroke:#595959;stroke-width:2;stroke-miterlimit:10;stroke-dasharray:none;stroke-opacity:1"
     d="m 753.746,167.317 -13.824,4.364 c -1.618,0.51 -3.275,1.042 -4.603,2.098 -2.084,1.657 -3.057,4.426 -3.056,7.089 0,1.662 0.385,3.41 1.521,4.623 2.405,2.566 6.571,1.563 10.018,0.868 6.619,-1.335 14.581,-0.181 18.236,5.497 m -221.324,-0.507 c -1.222,0.553 -2.494,1.182 -3.234,2.301 -0.74,1.119 -0.688,2.872 0.454,3.577 0.837,0.516 1.912,0.313 2.87,0.092 11.683,-2.692 23.456,-5.589 35.482,-6.118 3.789,-0.167 18.254,2.906 14.556,-2.809 -2.795,-4.319 -13.882,-5.447 -18.361,-5.341 -10.695,0.254 -22.106,3.928 -31.767,8.298 z M 383.322,267.51 c -13.743,12.191 -21.512,30.234 -36.013,41.511 -7.619,5.925 -17.606,10.775 -19.842,20.164 -1.212,5.089 0.256,10.422 2.164,15.293 1.413,3.606 3.089,7.144 5.428,10.232 10.599,13.995 32.29,16.046 42.298,30.47 3.486,5.025 5.296,11.267 9.757,15.451 4.38,4.107 10.647,5.547 16.645,5.809 5.998,0.262 12.019,-0.486 18.003,-0.006 14.925,1.197 29.594,9.939 44.057,6.064 8.797,-2.357 15.752,-9.071 21.368,-16.24 5.045,-6.44 9.467,-13.761 10.364,-21.892 1.709,-15.494 -9.555,-29.844 -9.526,-45.432 0.008,-4.58 1.001,-9.11 1.109,-13.689 0.108,-4.579 -0.828,-9.475 -4.027,-12.754 -2.908,-2.981 -7.427,-4.374 -9.455,-8.011 -0.571,-1.025 -0.907,-2.177 -1.571,-3.144 -3.081,-4.484 -9.947,-2.192 -15.376,-2.543 -18.697,-1.208 -17.334,-26.263 -30.284,-34.361 -12.866,-8.045 -35.554,4.611 -45.099,13.078 z"
     id="path36"
     clip-path="url(#clipPath1679)" /><path
     style="fill:none;stroke:#595959;stroke-width:2;stroke-miterlimit:10;stroke-dasharray:none;stroke-opacity:1"
     d="m 391.903,288.872 c -3.323,3.07 -6.067,6.612 -8.698,10.285 -4.734,6.619 -9.195,13.576 -15.569,18.654 -5.201,4.136 -12.015,7.546 -13.668,13.98 -0.894,3.484 -0.002,7.132 1.184,10.471 0.878,2.473 1.933,4.901 3.432,7.029 6.773,9.673 21.366,11.173 27.73,21.448 1.684,2.718 3.213,5.733 5.168,8.076 1.022,1.231 2.135,2.318 3.452,3.206 1.24,0.837 2.612,1.449 4.064,1.9 2.95,0.909 6.265,1.151 9.525,1.279 4.301,0.18 8.607,-0.249 12.884,0.163 7.456,0.72 14.818,3.969 22.136,4.951 3.15,0.422 6.292,0.423 9.42,-0.365 6.325,-1.591 11.418,-6.193 15.565,-11.196 3.773,-4.521 6.966,-9.651 7.682,-15.331 1.413,-10.929 -6.544,-21.142 -7.083,-32.064 -0.157,-3.184 0.356,-6.328 0.261,-9.493 -0.098,-3.168 -0.897,-6.537 -3.202,-8.814 -2.113,-2.08 -5.297,-3.088 -6.811,-5.576 -0.426,-0.701 -0.692,-1.488 -1.182,-2.146 -2.297,-3.087 -7.159,-1.656 -11.066,-1.98 -13.226,-1.098 -13.174,-18.044 -22.641,-23.57 -8.014,-4.636 -20.652,0.639 -28.681,6.058 -1.496,1.013 -2.83,2.044 -3.902,3.035 z"
     id="path37"
     clip-path="url(#clipPath1678)" /><path
     style="fill:none;stroke:#595959;stroke-width:2;stroke-miterlimit:10;stroke-dasharray:none;stroke-opacity:1"
     d="m 400.483,310.234 c -1.744,1.772 -3.077,3.768 -4.376,5.84 -2.336,3.75 -4.718,7.62 -8.145,10.526 -2.783,2.347 -6.424,4.318 -7.494,7.797 -0.575,1.88 -0.261,3.841 0.205,5.648 0.343,1.34 0.783,2.654 1.436,3.827 2.975,5.336 10.22,6.488 13.163,12.427 1.077,2.174 2.579,4.35 4.423,5.624 a 10.922,10.922 0 0 0 3.061,1.489 c 1.031,0.317 2.122,0.476 3.243,0.547 2.291,0.145 4.785,-0.085 7.29,0.002 2.605,0.091 5.195,-0.013 7.765,0.333 4.485,0.604 8.905,2.583 13.346,3.22 1.904,0.272 3.811,0.295 5.71,-0.113 3.853,-0.826 7.07,-3.327 9.761,-6.152 2.489,-2.613 4.449,-5.544 5,-8.771 1.087,-6.37 -3.522,-12.431 -4.64,-18.696 -0.319,-1.784 -0.289,-3.545 -0.587,-5.298 -0.303,-1.757 -0.962,-3.602 -2.376,-4.875 -1.314,-1.183 -3.168,-1.802 -4.166,-3.141 -0.282,-0.377 -0.479,-0.798 -0.792,-1.147 -1.517,-1.69 -4.371,-1.117 -6.755,-1.418 -7.754,-0.977 -8.999,-9.856 -14.998,-12.779 -5.186,-2.527 -12.682,0.152 -17.689,3.271 -0.919,0.577 -1.75,1.194 -2.385,1.839 z"
     id="path38"
     clip-path="url(#clipPath1677)" /><path
     style="fill:none;stroke:#595959;stroke-width:2;stroke-miterlimit:10;stroke-dasharray:none;stroke-opacity:1"
     d="m 409.926,330.956 c -0.338,0.139 -0.689,0.319 -0.863,0.641 -0.226,0.416 -0.088,0.923 -0.055,1.395 0.245,3.466 -5.164,5.414 -4.78,8.868 0.193,1.739 1.94,2.976 3.678,3.173 1.738,0.196 3.459,-0.405 5.091,-1.034 1.632,-0.629 3.305,-1.307 5.054,-1.274 2.5,0.047 4.744,1.533 7.203,1.991 a 8.993,8.993 0 0 0 5.956,-0.969 c 6.42,-3.564 -0.663,-8.996 -4.79,-10.43 -4.753,-1.651 -11.647,-4.359 -16.494,-2.361 z m 88.619,183.055 a 270.336,270.336 0 0 1 -25.791,-54.552 c -1.813,-5.299 -3.452,-11.169 -1.389,-16.376 3.318,-8.377 14.014,-10.601 20.783,-16.548 7.473,-6.565 9.931,-17.598 17.679,-23.836 6.003,-4.833 14.24,-5.944 21.924,-5.346 7.683,0.598 15.177,2.702 22.837,3.546 12.178,1.342 24.492,-0.522 36.727,0.119 12.234,0.641 25.259,4.422 32.596,14.234 3.657,4.891 5.574,10.849 8.698,16.097 7.109,11.942 20.329,19.51 34.06,21.652 13.731,2.143 27.888,-0.698 40.731,-6.007 8.89,-3.675 17.367,-8.544 26.727,-10.762 9.36,-2.217 20.214,-1.27 27.104,5.442 2.193,2.136 7.034,4.348 9.08,6.625 9.496,10.565 15.149,24.152 18.058,38.056 2.91,13.904 3.226,28.212 3.127,42.417"
     id="path39"
     clip-path="url(#clipPath1676)" /><path
     style="fill:none;stroke:#595959;stroke-width:2;stroke-miterlimit:10;stroke-dasharray:none;stroke-opacity:1"
     d="m 524.783,512.671 a 199.806,199.806 0 0 1 -20.219,-42.244 c -1.404,-4.116 -2.664,-8.664 -1.137,-12.716 2.458,-6.519 10.515,-8.39 15.601,-13.122 5.718,-5.321 7.745,-14.046 13.866,-19.04 4.743,-3.871 11.216,-4.893 17.303,-4.545 2.436,0.139 4.855,0.473 7.27,0.872 3.617,0.597 7.219,1.334 10.864,1.75 9.662,1.102 19.416,-0.073 29.129,0.482 9.624,0.543 19.838,3.336 25.784,10.611 2.964,3.627 4.622,8.044 7.185,11.926 4.057,6.146 10.331,10.699 17.411,13.424 a 44.774,44.774 0 0 0 9.655,2.511 c 10.818,1.564 21.973,-0.521 32.063,-4.317 6.998,-2.621 13.626,-6.167 20.872,-7.425 7.34,-1.275 15.567,0.115 20.713,5.79 1.66,1.831 5.258,3.757 6.829,5.679 7.06,8.641 11.546,19.377 13.972,30.392 2.426,11.016 3.003,22.294 3.352,33.423"
     id="path40"
     clip-path="url(#clipPath1675)" /><path
     style="fill:none;stroke:#595959;stroke-width:2;stroke-miterlimit:10;stroke-dasharray:none;stroke-opacity:1"
     d="m 551.021,511.331 a 130.83,130.83 0 0 1 -14.646,-29.936 c -0.994,-2.933 -1.878,-6.159 -0.885,-9.055 1.597,-4.66 7.014,-6.189 10.418,-9.697 3.964,-4.084 5.558,-10.493 10.052,-14.245 3.483,-2.908 8.192,-3.842 12.681,-3.745 1.797,0.039 3.589,0.227 5.383,0.479 2.684,0.378 5.353,0.893 8.049,1.219 7.146,0.862 14.34,0.376 21.532,0.845 7.013,0.444 14.416,2.249 18.973,6.988 2.27,2.363 3.669,5.239 5.672,7.756 3.168,3.984 7.815,6.899 12.999,8.63 a 36.911,36.911 0 0 0 7.072,1.589 c 7.905,0.985 16.059,-0.344 23.395,-2.626 5.106,-1.568 9.906,-3.777 15.016,-4.089 5.346,-0.326 10.917,1.514 14.323,6.137 1.127,1.53 3.484,3.158 4.578,4.733 4.641,6.682 7.943,14.601 9.885,22.728 1.942,8.127 2.781,16.377 3.577,24.429"
     id="path41"
     clip-path="url(#clipPath1674)" /><path
     style="fill:none;stroke:#595959;stroke-width:2;stroke-miterlimit:10;stroke-dasharray:none;stroke-opacity:1"
     d="m 577.26,509.991 a 65.482,65.482 0 0 1 -9.074,-17.629 c -0.585,-1.75 -1.091,-3.653 -0.632,-5.395 0.737,-2.801 3.501,-4.011 5.236,-6.271 2.204,-2.872 3.372,-6.94 6.238,-9.449 2.223,-1.946 5.167,-2.791 8.06,-2.944 a 24.485,24.485 0 0 1 3.495,0.086 c 1.75,0.159 3.487,0.453 5.234,0.688 4.631,0.623 9.264,0.825 13.935,1.207 4.403,0.345 8.995,1.162 12.162,3.365 1.576,1.099 2.717,2.434 4.159,3.585 2.28,1.823 5.298,3.1 8.587,3.835 1.447,0.32 2.96,0.543 4.49,0.666 4.991,0.407 10.142,-0.185 14.726,-0.936 3.213,-0.526 6.233,-1.326 9.161,-0.752 3.411,0.668 6.248,2.941 7.932,6.484 0.588,1.238 1.719,2.546 2.327,3.788 2.28,4.653 4.34,9.826 5.798,15.064 1.458,5.239 2.558,10.459 3.802,15.435"
     id="path42"
     clip-path="url(#clipPath1673)" /><path
     style="fill:none;stroke:#595959;stroke-width:2;stroke-miterlimit:10;stroke-dasharray:none;stroke-opacity:1"
     d="m 603.498,508.651 c -2.809,-2.41 -4.465,-6.254 -3.828,-9.9 0.637,-3.646 3.779,-6.834 7.47,-7.105 2.981,-0.219 5.797,1.32 8.757,1.727 4.087,0.562 8.117,-1.046 12.172,-1.802 4.056,-0.756 8.937,-0.321 11.27,3.082 1.877,2.737 1.424,6.361 1.618,9.673 a 23.017,23.017 0 0 0 5.739,13.842"
     id="path43"
     clip-path="url(#clipPath1672)" /></svg>
