<svg xmlns="http://www.w3.org/2000/svg" xmlns:xlink="http://www.w3.org/1999/xlink" xml:space="preserve" viewBox="0 0 750 500"><defs><clipPath id="R" clipPathUnits="userSpaceOnUse"><use xlink:href="#a" overflow="visible"/></clipPath><clipPath id="Q" clipPathUnits="userSpaceOnUse"><use xlink:href="#a" overflow="visible"/></clipPath><clipPath id="P" clipPathUnits="userSpaceOnUse"><use xlink:href="#a" overflow="visible"/></clipPath><clipPath id="O" clipPathUnits="userSpaceOnUse"><use xlink:href="#a" overflow="visible"/></clipPath><clipPath id="N" clipPathUnits="userSpaceOnUse"><use xlink:href="#a" overflow="visible"/></clipPath><clipPath id="M" clipPathUnits="userSpaceOnUse"><use xlink:href="#a" overflow="visible"/></clipPath><clipPath id="L" clipPathUnits="userSpaceOnUse"><use xlink:href="#a" overflow="visible"/></clipPath><clipPath id="K" clipPathUnits="userSpaceOnUse"><use xlink:href="#a" overflow="visible"/></clipPath><clipPath id="J" clipPathUnits="userSpaceOnUse"><use xlink:href="#a" overflow="visible"/></clipPath><clipPath id="I" clipPathUnits="userSpaceOnUse"><use xlink:href="#a" overflow="visible"/></clipPath><clipPath id="H" clipPathUnits="userSpaceOnUse"><use xlink:href="#a" overflow="visible"/></clipPath><clipPath id="G" clipPathUnits="userSpaceOnUse"><use xlink:href="#a" overflow="visible"/></clipPath><clipPath id="F" clipPathUnits="userSpaceOnUse"><use xlink:href="#a" overflow="visible"/></clipPath><clipPath id="E" clipPathUnits="userSpaceOnUse"><use xlink:href="#a" overflow="visible"/></clipPath><clipPath id="D" clipPathUnits="userSpaceOnUse"><use xlink:href="#a" overflow="visible"/></clipPath><clipPath id="C" clipPathUnits="userSpaceOnUse"><use xlink:href="#a" overflow="visible"/></clipPath><clipPath id="B" clipPathUnits="userSpaceOnUse"><use xlink:href="#a" overflow="visible"/></clipPath><clipPath id="A" clipPathUnits="userSpaceOnUse"><use xlink:href="#a" overflow="visible"/></clipPath><clipPath id="z" clipPathUnits="userSpaceOnUse"><use xlink:href="#a" overflow="visible"/></clipPath><clipPath id="y" clipPathUnits="userSpaceOnUse"><use xlink:href="#a" overflow="visible"/></clipPath><clipPath id="x" clipPathUnits="userSpaceOnUse"><use xlink:href="#a" overflow="visible"/></clipPath><clipPath id="w" clipPathUnits="userSpaceOnUse"><use xlink:href="#a" overflow="visible"/></clipPath><clipPath id="v" clipPathUnits="userSpaceOnUse"><use xlink:href="#a" overflow="visible"/></clipPath><clipPath id="u" clipPathUnits="userSpaceOnUse"><use xlink:href="#a" overflow="visible"/></clipPath><clipPath id="t" clipPathUnits="userSpaceOnUse"><use xlink:href="#a" overflow="visible"/></clipPath><clipPath id="s" clipPathUnits="userSpaceOnUse"><use xlink:href="#a" overflow="visible"/></clipPath><clipPath id="r" clipPathUnits="userSpaceOnUse"><use xlink:href="#a" overflow="visible"/></clipPath><clipPath id="q" clipPathUnits="userSpaceOnUse"><use xlink:href="#a" overflow="visible"/></clipPath><clipPath id="p" clipPathUnits="userSpaceOnUse"><use xlink:href="#a" overflow="visible"/></clipPath><clipPath id="o" clipPathUnits="userSpaceOnUse"><use xlink:href="#a" overflow="visible"/></clipPath><clipPath id="n" clipPathUnits="userSpaceOnUse"><use xlink:href="#a" overflow="visible"/></clipPath><clipPath id="m" clipPathUnits="userSpaceOnUse"><use xlink:href="#a" overflow="visible"/></clipPath><clipPath id="l" clipPathUnits="userSpaceOnUse"><use xlink:href="#a" overflow="visible"/></clipPath><clipPath id="k" clipPathUnits="userSpaceOnUse"><use xlink:href="#a" overflow="visible"/></clipPath><clipPath id="j" clipPathUnits="userSpaceOnUse"><use xlink:href="#a" overflow="visible"/></clipPath><clipPath id="i" clipPathUnits="userSpaceOnUse"><use xlink:href="#a" overflow="visible"/></clipPath><clipPath id="h" clipPathUnits="userSpaceOnUse"><use xlink:href="#a" overflow="visible"/></clipPath><clipPath id="g" clipPathUnits="userSpaceOnUse"><use xlink:href="#a" overflow="visible"/></clipPath><clipPath id="f" clipPathUnits="userSpaceOnUse"><use xlink:href="#a" overflow="visible"/></clipPath><clipPath id="e" clipPathUnits="userSpaceOnUse"><use xlink:href="#a" overflow="visible"/></clipPath><clipPath id="d" clipPathUnits="userSpaceOnUse"><use xlink:href="#a" overflow="visible"/></clipPath><clipPath id="c" clipPathUnits="userSpaceOnUse"><use xlink:href="#a" overflow="visible"/></clipPath><clipPath id="b" clipPathUnits="userSpaceOnUse"><use xlink:href="#a" overflow="visible"/></clipPath><path id="a" d="M0 0h750v500H0z"/></defs><path fill="none" stroke="currentColor" stroke-miterlimit="10" stroke-width="3.5" d="M357-10c-11-4-20 5-29 10-8 4-17 6-20 16l-4 13-7 7-18 15c-4 3-9 6-11 11-3 4-3 10 0 15 5 7 17 4 25 7 11 4 17 17 27 22-1 6-1 13 4 16 5 2 10-1 15-3s12-3 17-1 10 8 8 14c-1 5-5 9-3 13 0 2 2 4 3 5 7 11-9 26 6 31 12 4 25 1 35 11 9 10 4 27-3 36-8 10-22 4-29 15l-4 6c-4 7-13 9-18 14-9 8-10 20-17 29l-17 13c-6 5-11 11-12 18 0 6 3 11 3 17s-3 11-2 18l2 6 8 4c10 5 13 20 23 25 6 2 13 1 18 5 3 4 3 10 1 15-3 4-7 8-11 10a304 304 0 0 1-79 39h-6c-3-1-4-5-5-8-3-6-10-7-16-7l-17 3c-20 1-36-17-52-30a127 127 0 0 0-44-23c-4-1-7-2-9-5-3-3-2-9-2-14-1-8-7-15-15-17l-12-1c-18-1-37-12-52-2-4 2-7 6-12 7l-10-2-43-19m794-62c-10 1-19-6-28-10-12-4-24-4-36-5-30-3-58-15-88-15-24 1-47 10-68 21-10 6-20 12-27 21a55 55 0 0 0-10 51c6 17 20 31 37 36s35 1 53 2c18 0 38 8 43 25 1 3 1 7 3 10 2 4 8 7 13 9 9 4 20 8 30 6 10-1 18-8 27-12 18-8 40-5 55 7M600-12c-9 9-18 18-24 29-7 12-9 26-4 38 5 11 18 21 16 34-1 4-4 8-4 12-1 7 3 14 9 19 6 4 13 6 20 8 11 3 23 5 34 3s22-10 23-22V93c0-5 2-11 8-12 4-2 9 1 13-1 5-3 4-12 6-18 4-7 15-8 22-5 8 2 15 8 23 11 9 4 21 3 30-2" clip-path="url(#b)"/><path fill="none" stroke="currentColor" stroke-miterlimit="10" stroke-width="2" d="M760 298c-17-8-36-10-55-13l-43-5c-17-2-34-4-51-3a116 116 0 0 0-49 17c-9 6-18 13-22 22-5 10-6 22 0 30 4 5 9 9 15 11 14 6 30 7 46 9 15 2 32 6 42 18 5 7 8 15 15 22 13 12 35 9 53 3 17-6 37-13 54-5" clip-path="url(#c)"/><path fill="none" stroke="currentColor" stroke-miterlimit="10" stroke-width="2" d="M685 326c-4 0-9 1-12 3-4 2-6 7-5 11s6 6 10 7l13 2c8 2 14 9 22 9 14 0 18-18 7-26-8-5-26-6-35-6z" clip-path="url(#d)"/><path fill="none" stroke="currentColor" stroke-miterlimit="10" stroke-width="2" d="M705 311c-15-5-28-6-43-2-15 3-30 18-21 34 7 11 19 14 31 18 8 3 15 9 23 13 12 6 27 4 39-3 9-5 21-17 18-29-4-11-18-19-27-24z" clip-path="url(#e)"/><path fill="none" stroke="currentColor" stroke-miterlimit="10" stroke-width="2" d="M762 320c-21-10-44-19-67-25-23-5-48-6-71 0-9 2-18 6-25 12-6 7-11 16-9 25 2 10 9 17 17 21l26 10c9 3 17 7 23 15l6 8c6 7 16 9 25 8s18-4 26-6a148 148 0 0 1 55-6M607-6c-9 6-17 14-21 24s-4 22 2 31l11 14c4 7 4 16 3 23 0 5 0 10 2 14s6 6 10 8c5 3 11 5 18 4s14-5 17-12c3-5 3-11 5-16 1-6 4-11 9-14l9-3c11-4 10-20 19-27 6-4 14-4 21-1l21 9c11 4 25 2 35-5" clip-path="url(#f)"/><path fill="none" stroke="currentColor" stroke-miterlimit="10" stroke-width="2" d="M630-6a65 65 0 0 0-15 11c-7 7-12 16-10 25 2 7 9 13 11 20l1 12c1 3 3 8 7 9h4c8-2 11-11 17-16 5-5 12-6 17-10 8-6 13-16 14-25 2-10 0-20-3-30m17 4c0 14 9 28 23 34 7 4 16 4 24 5 9 1 19 1 27-4M712-8c-1 6 4 11 9 14 6 5 15 7 23 7s16-1 24-4" clip-path="url(#g)"/><path fill="none" stroke="currentColor" stroke-miterlimit="10" stroke-width="2" d="M644-6c1 6-4 10-7 14l-3 10c-1 5-1 11 3 13 3 2 6 2 9 1l7-7c7-11 8-25 4-37M-14 107a127 127 0 0 0 76 35c22 2 45-4 62-17l25-20c14-8 31-9 47-12s33-9 41-24c3-6 5-14 9-20 6-8 18-10 25-17s10-17 15-25c7-9 17-16 28-18" clip-path="url(#h)"/><path fill="none" stroke="currentColor" stroke-miterlimit="10" stroke-width="2" d="M-14 95a111 111 0 0 0 66 31c19 1 39-3 54-15a99 99 0 0 0 8-5l14-12a48 48 0 0 1 6-4c9-4 20-6 30-7a345 345 0 0 0 6-1c8-2 16-4 24-8 5-3 10-7 13-13s4-12 8-17c6-8 16-10 22-17 3-2 4-5 6-9l7-13c5-8 13-15 23-17" clip-path="url(#i)"/><path fill="none" stroke="currentColor" stroke-miterlimit="10" stroke-width="2" d="M-14 82c3 4 7 8 11 10 13 10 29 16 45 17a72 72 0 0 0 53-16l12-11a39 39 0 0 1 5-3c7-4 17-6 26-8h5l22-7c4-3 9-6 12-11s4-10 8-15c5-6 13-9 18-15l5-8 5-12c4-8 11-14 19-17" clip-path="url(#j)"/><path fill="none" stroke="currentColor" stroke-miterlimit="10" stroke-width="2" d="m-14 70 9 8c11 8 24 13 37 15a62 62 0 0 0 44-12l10-10a32 32 0 0 1 4-4c6-4 14-6 22-7l5-1c6-1 13-2 18-5 5-2 8-5 11-9l8-12c4-6 11-9 15-15l4-7 3-10c3-7 8-13 15-16" clip-path="url(#k)"/><path fill="none" stroke="currentColor" stroke-miterlimit="10" stroke-width="2" d="m-14 58 7 6c9 6 18 11 29 12 10 2 21 0 30-5l5-3 8-9a26 26 0 0 1 3-3c4-4 11-6 18-7l4-1 16-4c4-1 7-4 10-7l7-10c4-5 9-8 12-13l3-6 2-10c2-6 5-11 10-14" clip-path="url(#l)"/><path fill="none" stroke="currentColor" stroke-miterlimit="10" stroke-width="2" d="m-14 45 5 5a43 43 0 0 0 43 8l4-2c3-2 4-6 6-8l2-4c3-4 9-6 14-7a81 81 0 0 1 3 0c5-1 10-1 14-3 3-1 6-2 9-5l6-8 9-11 1-6 1-8c1-5 2-10 6-13" clip-path="url(#m)"/><path fill="none" stroke="currentColor" stroke-miterlimit="10" stroke-width="2" d="M-14 33c7 8 19 13 30 11l4-1c3-2 2-7 4-10 1-4 6-6 11-7l13-2c11-2 19-12 19-24 0-6-2-13 1-19M-32 307c10 12 21 25 36 27 13 2 25-5 38-5 12 0 24 5 36 7 17 2 34-3 48-13 25-16 40-45 40-74 0-11-2-21 0-31 1-8 5-15 7-23 5-14 6-29 2-43-1-4-2-8-5-11-5-5-13-6-21-4-7 3-13 8-19 12a151 151 0 0 1-114 15c-12-4-22-12-32-20-4-3-10-4-15-3s-10 4-14 7a73 73 0 0 0-26 56 207 207 0 0 0 39 103z" clip-path="url(#n)"/><path fill="none" stroke="currentColor" stroke-miterlimit="10" stroke-width="2" d="M25 180c-9-3-18-9-26-14q-6-4.5-12-3c-5 1-8 3-12 6a58 58 0 0 0-23 44l3 21c5 21 14 44 28 61 7 10 16 20 29 22 10 1 19-4 29-4 10-1 20 3 30 4 13 1 27-4 39-11 19-13 32-35 32-58 1-8-1-16 1-24l6-18c4-10 4-22 1-33 0-4-1-7-4-9-4-4-10-5-16-3-5 1-10 5-15 8a129 129 0 0 1-90 11z" clip-path="url(#o)"/><path fill="none" stroke="currentColor" stroke-miterlimit="10" stroke-width="2" d="m35 196-21-9c-3-1-6-2-9-1l-10 4a44 44 0 0 0-18 49c4 15 10 32 20 44 6 7 13 15 22 16 7 1 15-2 22-2 8-1 15 1 22 1 11 0 21-4 30-10 14-9 24-24 26-40l1-18 5-12a44 44 0 0 0 0-25l-3-6c-2-3-7-4-11-3l-11 5a111 111 0 0 1-65 7z" clip-path="url(#p)"/><path fill="none" stroke="currentColor" stroke-miterlimit="10" stroke-width="2" d="m44 212-15-3a15 15 0 0 0-7 0l-7 2c-8 5-14 12-16 21v11c3 10 7 20 13 28 4 5 8 9 14 11l15-1 15-1 21-9c9-6 16-14 19-24l2-10 2-8a26 26 0 0 0 0-16l-2-3c-1-2-4-3-6-3l-7 2c-9 2-20 3-31 3a98 98 0 0 1-10 0z" clip-path="url(#q)"/><path fill="none" stroke="currentColor" stroke-miterlimit="10" stroke-width="2" d="M21 248c2 4 3 8 6 11 3 4 8 6 13 6 8-1 13-8 20-12 4-2 9-3 12-7 13-13-7-23-18-18-12 5-33 3-33 20zm272-135c6 6 9 14 13 20 5 7 13 12 21 11 2-1 4-2 6-1 4 0 6 4 7 8 3 9 2 18 2 28 1 9 5 20 14 23 3 1 8 1 11 3 6 5 3 15-2 20-8 8-18 12-26 19-12 10-19 24-29 35a71 71 0 0 1-46 21c-17 1-34-4-48-15-9-6-16-15-22-24-2-3-5-6-5-10-1-3 0-7 1-10a215 215 0 0 1 9-30c2-6 5-11 6-17l-3-18c-3-17-4-35 5-49 16-25 65-38 86-14z" clip-path="url(#r)"/><path fill="none" stroke="currentColor" stroke-miterlimit="10" stroke-width="2" d="M226 148c11-18 46-28 62-12l10 14c4 4 10 8 15 7h5c3 0 5 3 6 6 2 6 2 12 2 18v4c0 8 2 15 7 18l7 4c3 3 1 10-3 14l-17 13-10 12-10 13c-8 9-20 15-32 16-12 2-25-1-34-9-7-5-12-11-16-18l-4-8 1-7a192 192 0 0 1 2-9 207 207 0 0 1 4-13c2-4 4-8 4-13l-2-13c-2-12-3-26 3-37z" clip-path="url(#s)"/><path fill="none" stroke="currentColor" stroke-miterlimit="10" stroke-width="2" d="M245 170c5-13 26-19 38-11l7 7c3 2 7 5 10 5h3c2 0 4 2 5 4 2 4 2 9 2 13v3l1 14 1 3c2 2 0 6-2 8l-10 9-5 7-5 8c-5 5-11 9-17 11-7 1-16 1-22-4a32 32 0 0 1-11-17v-5l2-6a433 433 0 0 1 2-8l1-8-1-9c-1-8-2-16 1-24z" clip-path="url(#t)"/><path fill="none" stroke="currentColor" stroke-miterlimit="10" stroke-width="2" d="M264 192c0 8 3 15 2 23l-1 7c0 2 1 5 4 6 2 2 6 0 8-2l3-9 4-8c5-5 11-5 11-13-1-5-3-9-7-11-8-5-25-5-24 7zm-98 128a192 192 0 0 0-16 26l-3 12c-1 10 8 17 16 22l40 28c7 5 15 10 23 10 9 1 19-2 27 2l9 6c11 6 25 1 36-6 5-3 10-7 10-12 0-6-6-10-11-12s-11-3-16-7c-8-7-6-20-7-31-3-14-12-26-24-34-12-9-29-19-43-24-17-6-32 7-41 20z" clip-path="url(#u)"/><path fill="none" stroke="currentColor" stroke-miterlimit="10" stroke-width="2" d="m182 338-7 16-2 6c1 6 7 9 12 12a620 620 0 0 1 24 16c5 3 9 6 14 7s10 0 15 2l6 4c7 3 15 0 21-4 3-2 6-4 7-8 0-3-2-6-5-8s-6-3-8-6c-5-5-5-13-7-19-1-5-3-9-6-12l-10-8c-9-5-20-10-29-12-11-2-19 5-25 14z" clip-path="url(#v)"/><path fill="none" stroke="currentColor" stroke-miterlimit="10" stroke-width="2" d="m199 357 1 5 6 3a39 39 0 0 1 14 7l4 3c2 1 6 0 8-1 10-6 3-21-6-24-8-4-27-6-27 7zm-211 15c10 13 30 13 47 10s35-7 49 2c11 8 16 21 26 30s24 11 36 18c19 11 33 34 55 35 7 0 13-2 19-1 10 1 19 7 28 11 21 8 45 2 65-8s38-24 59-32c21-9 46-11 65 2 30 20 27 67 50 95" clip-path="url(#w)"/><path fill="none" stroke="currentColor" stroke-miterlimit="10" stroke-width="2" d="M276 510a766 766 0 0 1 67-41c13-7 26-13 41-16 15-2 31 1 42 11 9 8 13 19 18 30l6 17" clip-path="url(#x)"/><path fill="none" stroke="currentColor" stroke-miterlimit="10" stroke-width="2" d="m318 511 28-20c7-6 14-11 22-14 9-3 18-5 26-2 14 6 21 20 27 33M-15 401c13 6 28 3 43 0 14-3 29-5 42 3l11 9a288 288 0 0 0 40 31l11 4c16 7 25 24 41 30 15 6 33 2 47 10 9 6 15 17 18 28" clip-path="url(#y)"/><path fill="none" stroke="currentColor" stroke-miterlimit="10" stroke-width="2" d="M-16 416c11 5 24 2 37 0 7-2 15-3 23-2 4 0 9 2 13 4l10 8 21 17c5 4 9 7 14 9l10 4c5 2 9 6 13 9 7 7 13 14 22 18l13 3c10 1 19 1 27 6 9 6 13 15 16 24" clip-path="url(#z)"/><path fill="none" stroke="currentColor" stroke-miterlimit="10" stroke-width="2" d="M-18 431c10 3 21 1 32-1l19-1 12 4 8 6 19 14c4 3 7 6 12 8l8 3 10 8c6 6 12 12 19 15 4 2 7 3 11 3 8 2 16 2 23 7 7 4 11 12 14 20" clip-path="url(#A)"/><path fill="none" stroke="currentColor" stroke-miterlimit="10" stroke-width="2" d="M-19 446c8 2 17 1 26-1l16-1 9 3 8 5 15 11c3 2 6 5 10 6 2 2 5 2 7 3l8 7c5 4 10 10 15 13l9 3c6 2 13 2 18 6 6 4 9 10 12 16" clip-path="url(#B)"/><path fill="none" stroke="currentColor" stroke-miterlimit="10" stroke-width="2" d="M-21 460c7 2 14 1 21 0h12l8 2 6 3 12 8 8 5 5 3 7 5c4 3 7 8 11 10l7 4c4 1 9 2 13 5 5 3 8 8 11 12m-122-42H2l6 1 4 2 10 5 6 4 3 2 5 4 7 8 5 3 9 6 8 7m-89-27h16c8 1 17 3 22 10l5 9a24 24 0 0 0 12 9M332 19l-10 17c-5 7-14 9-20 15-1 1-3 2-3 4-2 3 0 8 4 10 7 6 19 6 25 14 3 3 4 7 6 11 9 11 27 9 39 16 7 3 12 10 15 17 3 12 0 27 10 34 2 3 5 4 9 5 10 2 22 2 32-3 7-2 13-6 19-10 11-8 23-15 37-17 18-3 37 4 54-3 15-7 24-27 18-43-5-11-14-19-17-30s1-23 6-33 12-19 16-30l1-5-3-3c-20-18-47-28-74-30-28-2-55 4-80 14-9 4-18 8-24 16-6 6-11 11-18 14-14 6-33 6-42 20z" clip-path="url(#C)"/><path fill="none" stroke="currentColor" stroke-miterlimit="10" stroke-width="2" d="M424-17c-7 3-14 7-19 12-4 5-8 9-14 11-11 5-26 5-33 16l-8 13c-4 5-11 7-16 11l-3 3c-1 3 1 7 3 9 6 4 14 4 19 10l5 9c6 9 19 7 29 13a28 28 0 0 1 14 21c2 7 3 13 8 17 2 2 5 3 7 3 9 3 18 2 26 0l14-7c6-4 12-7 19-9 3-2 6-3 10-3 14-2 30 3 43-3 12-6 18-21 14-34-3-8-10-15-12-23-2-9 1-18 6-26 4-8 10-15 12-24l1-4-2-3a93 93 0 0 0-59-24c-22-1-44 4-64 12z" clip-path="url(#D)"/><path fill="none" stroke="currentColor" stroke-miterlimit="10" stroke-width="2" d="M433-3c-5 2-10 5-14 9l-11 7c-8 3-18 4-24 11-3 3-4 7-6 10l-12 8-2 2c-1 2 0 4 2 6 3 3 9 4 12 8l3 6c4 6 13 5 20 9l10 10 2 5c2 4 3 8 7 11l6 2c6 2 13 2 18 1l10-4a88 88 0 0 1 22-6c10-1 21 2 31-3 8-4 13-15 10-24-2-6-6-11-7-17-1-7 2-13 6-19 3-6 7-11 9-18V8l-2-2a63 63 0 0 0-42-19 73 73 0 0 0-1 0c-16 0-32 4-47 10z" clip-path="url(#E)"/><path fill="none" stroke="currentColor" stroke-miterlimit="10" stroke-width="2" d="m441 11-9 5-7 4c-5 2-11 3-15 7l-4 5-8 6-1 1v3l6 5 1 3c2 4 7 5 10 7l8 5a34 34 0 0 1 3 3l6 4 5 2 11 2h6l8-1h5c7 0 14 1 20-3 5-3 7-9 6-15 0-3-3-6-2-10 0-4 3-8 5-12 3-3 6-7 6-12v-2l-1-2c-7-8-17-13-27-13a47 47 0 0 0-1 0c-10 0-21 4-31 8z" clip-path="url(#F)"/><path fill="none" stroke="currentColor" stroke-miterlimit="10" stroke-width="2" d="M430 34c-2 1-3 4-2 7 2 2 6 1 8 0 3 0 6-2 9 0 5 1 6 7 9 10 3 2 8 2 11-1l4-10c5-5 11-5 7-13-2-5-6-8-11-8l-15 6c-6 3-15 4-20 9zm327 55a251 251 0 0 0-32-12c-6-1-14-2-16 4l-1 6c-1 6-8 9-14 9l-4 2c-2 1-2 4-2 6-1 9-1 19-6 26-7 12-22 15-36 15a149 149 0 0 1-44-5c-10-3-20-7-31-4l-15 6c-9 3-18 2-27 3-26 1-52 12-73 29-7 6-13 12-16 20-4 10-4 21-1 32 3 10 9 19 14 28 4 7 9 14 16 14 3 0 6-2 9-1 4 2 5 7 8 10 5 6 14 6 20 3 7-3 12-8 17-13 29-25 69-30 107-31 10 0 20 0 29 3l16 7c10 2 20 2 30 2a159 159 0 0 1 64 17" clip-path="url(#G)"/><path fill="none" stroke="currentColor" stroke-miterlimit="10" stroke-width="2" d="M754 104c-5-4-10-9-16-10s-14 0-17 6l-2 3-5 1c-7 1-13 5-15 12-3 8 1 17-4 24-2 4-7 7-12 9a124 124 0 0 1-54 7c-17-2-34-7-51-4l-19 5c-7 2-15 2-23 3a129 129 0 0 0-42 14c-12 6-23 14-29 26s-7 27 1 38l5 4h9c7 1 9 11 16 12l9-3c21-10 41-22 63-27 11-2 23-3 34-3 19-1 39-2 58 3l19 6c14 3 28 1 42 3a102 102 0 0 1 37 10" clip-path="url(#H)"/><path fill="none" stroke="currentColor" stroke-miterlimit="10" stroke-width="2" d="m506 191-11 8c-2 4-3 10 1 13l5 5 1 6c1 3 4 4 7 4l9-2c17-8 34-17 52-19 16-3 32 0 48-3 6-1 12-3 14-9 3-16-21-27-33-26-20 1-40 3-59 9a182 182 0 0 0-34 14zm252-71c-4 1-8-1-12-4-4-2-9-3-13-1l-6 7-6 3-3 9c-1 8-5 14-11 19s-14 8-22 10c-7 3-15 6-21 11-6 6-9 15-6 22 4 7 12 11 20 12 14 3 28 2 41 4 14 2 28 6 38 17" clip-path="url(#I)"/><path fill="none" stroke="currentColor" stroke-miterlimit="10" stroke-width="2" d="M757 146c-2-3-6-4-9-3-3 0-6 3-8 6l-2 5c-2 7-10 10-17 13a114 114 0 0 0-16 8c-4 2-9 6-9 11 0 3 3 6 6 8s6 2 9 2l25 1a43 43 0 0 1 22 11" clip-path="url(#J)"/><path fill="none" stroke="currentColor" stroke-miterlimit="10" stroke-width="2" d="m754 167-14 5-5 2c-2 1-3 4-3 7l2 4c2 3 6 2 10 1 6-1 14 0 18 6m-221-1-4 3 1 3h3c11-2 23-5 35-6 4 0 19 3 15-3-3-4-14-5-19-5-10 0-22 4-31 8zm-158 77c-13 12-21 30-36 41-7 6-17 11-20 20-1 5 1 11 3 15l5 11c11 14 32 16 42 30l10 16c4 4 11 5 17 5h18c15 2 29 10 44 6 9-2 16-9 21-16 5-6 10-14 11-22 1-15-10-29-10-45l1-14c0-4-1-9-4-13-3-2-7-4-9-8l-2-3c-3-4-10-2-15-2-19-1-18-26-31-35-12-8-35 5-45 14z" clip-path="url(#K)"/><path fill="none" stroke="currentColor" stroke-miterlimit="10" stroke-width="2" d="m392 289-9 10c-5 7-9 14-15 19-6 4-12 7-14 14-1 3 0 7 1 10l4 7c6 10 21 11 27 22l5 8 4 3 4 2 10 1h12l23 5h9c6-2 11-6 16-11 3-5 6-10 7-16 2-11-6-21-7-32v-9c0-3-1-7-3-9l-7-6-1-2c-2-3-7-1-11-2-13-1-13-18-23-23-8-5-20 0-28 6z" clip-path="url(#L)"/><path fill="none" stroke="currentColor" stroke-miterlimit="10" stroke-width="2" d="m400 310-4 6-8 11-8 7 1 6 1 4c3 5 10 6 13 12l5 6a11 11 0 0 0 3 1l3 1h15l13 4 6-1c4 0 7-3 10-6 2-2 4-5 5-9 1-6-4-12-5-18v-6l-3-4-4-4-1-1-6-1c-8-1-9-10-15-13-6-2-13 0-18 3z" clip-path="url(#M)"/><path fill="none" stroke="currentColor" stroke-miterlimit="10" stroke-width="2" d="m410 331-1 1v1c0 3-5 5-5 9 0 2 2 3 4 3l5-1 5-1 7 2a9 9 0 0 0 6-1c7-4 0-9-5-11-4-1-11-4-16-2zm89 183a270 270 0 0 1-26-55c-2-5-4-11-2-16 4-8 14-11 21-16 8-7 10-18 18-24 6-5 14-6 22-6l23 4h36c13 1 26 4 33 14 4 5 5 11 9 16 7 12 20 20 34 22 13 2 28-1 40-6 9-4 18-9 27-11s20-1 27 6l9 6c10 11 15 24 18 38s4 29 3 43" clip-path="url(#N)"/><path fill="none" stroke="currentColor" stroke-miterlimit="10" stroke-width="2" d="M525 513a200 200 0 0 1-20-43c-2-4-3-8-2-12 3-7 11-9 16-13 6-6 8-14 14-19 5-4 11-5 17-5l7 1 11 2h29c10 1 20 3 26 11 3 3 5 8 7 12 4 6 11 10 18 13a45 45 0 0 0 9 3c11 1 22-1 33-5 7-2 13-6 20-7 8-1 16 0 21 6l7 5c7 9 12 20 14 31l3 33" clip-path="url(#O)"/><path fill="none" stroke="currentColor" stroke-miterlimit="10" stroke-width="2" d="M551 511a131 131 0 0 1-15-30c-1-3-2-6-1-9 2-4 8-6 11-9 4-4 5-11 10-15 3-3 8-3 13-3h5l8 1 22 1c7 1 14 2 19 7l5 8c3 4 8 7 13 9a37 37 0 0 0 7 1c8 1 16 0 24-2l15-5c5 0 11 2 14 7l5 4c4 7 8 15 10 23l3 24" clip-path="url(#P)"/><path fill="none" stroke="currentColor" stroke-miterlimit="10" stroke-width="2" d="M577 510a65 65 0 0 1-9-18v-5c0-3 3-4 5-6 2-3 3-7 6-10 2-2 5-3 8-3a24 24 0 0 1 4 0l5 1 14 1c4 1 9 1 12 4l4 3c2 2 5 3 9 4l4 1 15-1c3-1 6-2 9-1s6 3 8 7l2 3 6 15 4 16" clip-path="url(#Q)"/><path fill="none" stroke="currentColor" stroke-miterlimit="10" stroke-width="2" d="M603 509c-2-3-4-7-3-10 0-4 3-7 7-7 3-1 6 1 9 1 4 1 8-1 12-1 4-1 9-1 11 3 2 2 2 6 2 9a23 23 0 0 0 6 14" clip-path="url(#R)"/></svg>